<svg width="49" height="38" viewBox="0 0 49 38" fill="none" xmlns="http://www.w3.org/2000/svg">
<path d="M0 30.1159C0.255741 29.5982 0.575417 29.1452 1.20198 29.0546C1.91806 28.964 2.40397 29.3005 2.77479 29.9088C4.16858 32.1479 6.125 33.6881 8.60569 34.5164C10.7283 35.2283 12.851 35.2154 15.012 34.6329C22.2239 32.6786 29.4358 30.7372 36.6605 28.8087C41.9415 27.3979 47.4656 30.5689 48.9233 35.8237C49.1023 36.4449 48.9616 36.9756 48.4885 37.4027C48.041 37.8039 47.5167 37.8686 46.9669 37.6098C46.5065 37.4027 46.2891 37.0144 46.1357 36.5485C45.2918 33.9728 43.5527 32.3421 40.9825 31.6173C39.6527 31.2419 38.3356 31.3455 37.0185 31.7079C29.6915 33.6881 22.3901 35.6942 15.0376 37.5968C9.3857 39.0594 3.27349 36.4061 0.268528 31.3584C0.179019 31.1772 0.0895094 30.9831 0 30.8019C0 30.5818 0 30.3489 0 30.1288V30.1159Z" fill="black"/>
<path d="M19.5898 27.3722C17.8508 20.8102 16.1245 14.287 14.3855 7.72503C11.5979 8.47571 8.86149 9.22639 6.07391 9.97707C6.20178 10.456 6.31687 10.896 6.41916 11.3231C6.61097 12.1644 6.18899 12.9539 5.43456 13.1481C4.62897 13.3551 3.88732 12.9021 3.64437 12.035C3.42699 11.2325 3.20961 10.4171 2.99223 9.60173C2.68534 8.44982 3.06895 7.76386 4.207 7.45323C6.62375 6.79315 9.04051 6.14601 11.4573 5.48593C18.0554 3.71277 24.6791 1.92666 31.29 0.127616C32.5687 -0.221839 33.1825 0.127616 33.5277 1.40895C33.7323 2.17257 33.9369 2.9362 34.1415 3.69982C34.3845 4.64465 33.9753 5.42121 33.1313 5.64124C32.3257 5.84832 31.6224 5.36944 31.3667 4.4505C31.2644 4.06222 31.1621 3.67394 31.0342 3.22094C28.2722 3.97162 25.523 4.70936 22.7227 5.47298C24.4617 12.022 26.1752 18.5322 27.9142 25.1072C28.3617 24.9907 28.7837 24.8742 29.2185 24.7707C30.088 24.5506 30.8297 24.9519 31.0598 25.7673C31.2772 26.5568 30.8169 27.3333 29.9601 27.5663C26.3158 28.5629 22.6715 29.5466 19.0272 30.5173C18.1705 30.7502 17.416 30.3102 17.1987 29.4948C16.9941 28.7312 17.4544 27.9546 18.2856 27.7216C18.6947 27.6051 19.1167 27.5016 19.6026 27.3592L19.5898 27.3722Z" fill="black"/>
</svg>
