<?xml version="1.0" encoding="UTF-8"?><svg id="Layer_1" xmlns="http://www.w3.org/2000/svg" width="50mm" height="50mm" viewBox="0 0 141.7 141.7"><path d="M70.9,86.5c-6.4,0-12.7,0-19.1,0-1.7,0-2.4.6-3,2-1.3,3.4-2.8,6.7-4.3,10-1.4,3.2-4.3,4.5-7.1,3.3-2.9-1.2-3.9-4.1-2.5-7.4,10.2-23.9,20.5-47.8,30.7-71.8,1-2.3,2.5-3.9,5.2-3.9,2.6,0,4.1,1.5,5,3.8,10.3,24,20.6,48,30.9,71.9,1.9,4.4-.8,8.1-5.4,7.7-2.1-.1-3.3-1.5-4.1-3.3-1.6-3.6-3.2-7.3-4.7-10.9-.5-1.1-1.1-1.5-2.3-1.5-6.5,0-13,0-19.5,0ZM70.9,37.1c-5.7,13.3-11.1,26-16.7,38.9h33.3c-5.5-12.9-11-25.6-16.7-38.9Z"/><path d="M70.8,123.1c-15.6,0-31.1,0-46.7,0-2.7,0-4.7-1.5-5.4-3.9-.6-2.1.3-4.6,2.3-5.7,1.1-.6,2.5-.8,3.7-.8,9.2,0,18.4,0,27.6,0,21.3,0,42.6,0,64,0,1.2,0,2.4,0,3.4.4,2.2.7,3.6,3.3,3.3,5.6-.4,2.4-2.3,4.2-4.7,4.4-.6,0-1.2,0-1.9,0-15.2,0-30.4,0-45.7,0Z"/></svg>