<?xml version="1.0" encoding="UTF-8"?><svg id="Layer_1" xmlns="http://www.w3.org/2000/svg" width="50mm" height="50mm" viewBox="0 0 141.7 141.7"><path d="M94.6,112.2H22.5c-5.2,0-7.5-2.3-7.5-7.6,0-10,0-19.9,0-29.9,0-2.1.6-2.6,2.6-2.6,6.5.1,12.9,0,19.5,0,2.8,19.2,17.9,27,28.9,27,7.7,0,14.5-2.4,20.3-7.5,5.8-5.1,8.9-11.7,9.9-19.5,5.1,0,10,0,15,0,2.3,0,5.3-.6,6.7.6,1.2,1,.5,4.2.5,6.5,0,.6,0,1.2,0,1.8,0,1.4,1.1,2.5,2.5,2.5s2.5-1.1,2.5-2.5c0-15.7,0-31.3,0-47,0-7.5-4.5-11.8-12-11.9-14.9,0-29.7,0-44.6,0h0c-15,0-30.1,0-45.1,0-7,0-11.7,4.5-11.7,11.5,0,24,0,48,0,71.9,0,6.8,4.6,11.6,11.4,11.6,24.4,0,48.7,0,73.1,0,1.4,0,2.5-1.1,2.5-2.5s-1.1-2.5-2.5-2.5ZM66.6,94.1c-13.4,0-24.2-10.9-24.2-24.4,0-13.5,10.8-24.3,24.3-24.4,13.6,0,24.5,10.8,24.5,24.4,0,13.6-10.9,24.4-24.5,24.3ZM30.4,27.2h80.7c5,0,7.3,2.2,7.3,7.2,0,10,0,20.1,0,30.1v2.6h-7c-4.3,0-8.6-.1-12.8,0-1.9,0-2.5-.6-2.8-2.4-3.3-20.7-26.9-31.3-44.6-20.2-7.4,4.7-12,11.4-13.5,20.1-.1.8-.3,1.5-.5,2.3h-6.8V27.2ZM15,45.7c0-3.5,0-7,0-10.5,0-5.8,2.2-8,8.1-7.9.5,0,1.1,0,1.9,0v39.9c-3,0-5.9,0-8.8,0-.4,0-1.1-1.3-1.1-2,0-6.5,0-12.9,0-19.4Z"/><path d="M100.6,47.7c1.7,0,3.4,0,5.1,0,1.7,0,3.4,0,5.1,0,2,0,3-1,3-3,0-3.3,0-6.7,0-10,0-1.9-.9-2.9-2.8-2.9-3.4,0-6.8,0-10.2,0-1.8,0-2.8.9-2.8,2.6,0,3.6,0,7.1,0,10.7,0,1.7,1,2.5,2.7,2.6ZM103.1,37.1h5.6v5.5h-5.6v-5.5Z"/><path d="M66.9,52.8c-9.6,0-17.1,7.3-17.1,16.8,0,9.4,7.4,17,16.7,17,9.6,0,17.1-7.4,17.1-16.9,0-9.4-7.4-17-16.7-17ZM66.7,81.6c-6.4,0-11.8-5.3-11.9-11.8-.1-6.5,5.4-12.1,12-12.1,6.5,0,11.9,5.3,12,11.8,0,6.5-5.3,12-12,12.1Z"/><path d="M132.1,102.4c0-.1,0-.2,0-.3,0-.2-.1-.4-.1-.5-.9-8.2-8.5-14.4-16.9-14-6.7.4-12.6,4.9-14.6,11.3-2,6.3.2,13.6,5.3,17.6,2.2,1.7,4.8,2.8,8.3,3.5h3.6s0,0,0,0c2.9-.6,5.3-1.3,7.4-2.9,3.9-2.9,6.2-6.7,6.8-11.3,0,0,0-.2.1-.3,0,0,0-.2,0-.2v-2.8s0-.1,0-.1ZM128.1,103.8c0,6.7-5.5,12.2-12.2,12.2-3.2,0-6.2-1.2-8.5-3.5-2.4-2.4-3.7-5.5-3.7-8.9,0-3.2,1.3-6.3,3.6-8.5,2.3-2.3,5.4-3.5,8.6-3.5h0c6.7,0,12.1,5.5,12.1,12.3Z"/><path d="M123.3,103.2c0-.7,0-1.2-.4-1.6-.3-.4-.9-.5-1.6-.5-.7,0-1.5,0-2.2,0-.2,0-.4,0-.6,0v-1.9c0-1.4,0-2.1-.5-2.5-.5-.5-1.2-.4-2.7-.4-.6,0-1.1,0-1.5.4-.4.3-.5.9-.5,1.6,0,.7,0,1.5,0,2.3,0,.2,0,.4,0,.6h-.7c-.8,0-1.6,0-2.3,0-.6,0-1.1.1-1.4.5-.3.3-.5.8-.4,1.5,0,.3,0,.6,0,.9-.1.8,0,1.4.4,1.8.5.6,1.4.6,2,.5.7,0,1.3,0,2,0,.2,0,.3,0,.5,0,0,.2,0,.4,0,.6,0,.8,0,1.5,0,2.2,0,.7,0,1.3.5,1.6.3.3.9.5,1.5.4.4,0,.7,0,1.1,0,0,0,.2,0,.3,0,.6,0,1-.1,1.3-.4.4-.4.5-.9.5-1.6,0-.7,0-1.5,0-2.2,0-.2,0-.4,0-.6h.7c.8,0,1.5,0,2.2,0,.7,0,1.3-.1,1.7-.5.3-.4.5-.9.4-1.5,0-.3,0-.7,0-1.1Z"/></svg>