<?xml version="1.0" encoding="UTF-8"?><svg id="Layer_1" xmlns="http://www.w3.org/2000/svg" width="50mm" height="50mm" viewBox="0 0 141.7 141.7"><path d="M78.7,58.4c-3.4-2.5-8.4-2.7-6.9-8.4H27.8v43.9h30c0,2.1.1,4,0,5.8,0,.5-.9,1.2-1.5,1.2-10.7,0-21.4,0-32.1,0-2.6,0-3.6-1.4-3.6-4.6,0-13.3,0-26.7,0-40,0-3.2,0-6.4,0-9.5,0-2.7,1.2-4,4-4,16.7,0,33.5,0,50.2,0,2.2,0,3.8,1,3.9,3.2.2,3.9,0,7.9,0,12.5Z"/><path d="M61.3,83.1c.3,0,.4-.1.5-.1,2.1.6,4.9.6,6,2,1.1,1.4.4,4.1.4,6.3,0,6.4,0,12.9,0,19.3v2.9c14.3-8.3,28.2-16.3,42.4-24.5-5.9-3.4-11.5-6.7-17.2-10,1.8-1.6,3.2-3.1,4.9-4.3.4-.3,1.4,0,2,.2,6.1,3.5,12.2,7,18.3,10.5,3.4,2,3.4,5,0,7-11.2,6.5-22.4,13-33.6,19.4-5.8,3.4-11.7,6.8-17.5,10.1-3.8,2.2-6.4.8-6.4-3.6,0-11.2,0-22.3,0-33.5,0-.5,0-1.1.1-1.6Z"/><path d="M44.5,39.3c2.8-10,15.3-21.9,31.7-20.3,15.8,1.5,28,14.4,28.5,30.1.6,16.8-12,28.6-22.6,31,0-2.2-.1-4.3,0-6.4,0-.6,1.1-1.1,1.8-1.5,8.5-4.5,13.3-11.6,13.7-21.2.6-13.8-10.9-25.2-24.7-24.9-8.5.2-15.2,4-19.8,11.1-1.1,1.6-2.2,2.4-4.1,2.2-1.4-.2-2.9,0-4.6,0Z"/><path d="M42.7,53.2h6.6c.4,1.4.7,2.9,1.2,4.4,2.6,7.8,7.7,13.1,15.6,15.6,1.7.5,2.4,1.2,2.2,3-.2,1.4,0,2.9,0,4.4-11.5.4-26.8-16-25.5-27.3Z"/><path d="M68.1,64.3v6.2c-2.4-1.2-4.4-2.3-6.4-3.3-.2,0-.4-.3-.4-.5,0-3.4,0-6.8.4-10.1.2-1.7,2.7-2.4,4.5-1.5,6.6,3.6,13.1,7.4,19.7,11.1,0,.3,0,.6,0,.9-2.3,1-4.5,2.1-6.8,2.9-.5.2-1.4-.4-2.1-.7-2.8-1.5-5.6-3.1-8.9-5Z"/><path d="M71.9,70.6c2.1,1.2,3.9,2.2,5.7,3.3.6.4,1.1,1.3,1.1,2,0,7,0,13.9,0,20.9,0,2.7-1.3,3.9-4,4-.8,0-1.7,0-2.7,0v-30.2Z"/></svg>