<?xml version="1.0" encoding="UTF-8"?><svg id="Layer_1" xmlns="http://www.w3.org/2000/svg" width="50mm" height="50mm" viewBox="0 0 141.7 141.7"><path d="M71,21c4.6,0,8.9,1,12.9,3.1,10.4,5.5,20.8,10.9,31.2,16.5,4.7,2.5,7.2,6.6,7.2,11.9,0,5.3-2.4,9.5-7,12-10.4,5.7-20.9,11.4-31.5,16.8-8.4,4.3-17.2,4.4-25.7,0-10.7-5.5-21.3-11.2-31.8-17-4.6-2.5-6.9-6.7-6.9-11.9,0-5.2,2.4-9.3,7-11.8,10.5-5.7,21.1-11.3,31.7-16.8,4-2.1,8.3-3,12.8-2.9ZM71.1,28.4c0,.2-.1.4-.2.6-3.4-.1-6.6.7-9.6,2.3-10.1,5.3-20.2,10.7-30.3,16-2.1,1.1-3.5,2.7-3.5,5.2,0,2.5,1.3,4.1,3.4,5.2,10.1,5.4,20.1,10.9,30.2,16.2,6.4,3.4,13,3.4,19.4,0,10.2-5.3,20.3-10.9,30.4-16.3,2.1-1.1,3.3-2.7,3.3-5.1,0-2.5-1.3-4.1-3.4-5.2-10.2-5.4-20.3-10.9-30.5-16-2.8-1.4-6.2-2-9.2-2.9Z"/><path d="M70.9,120.8c-4.9,0-9.5-1.2-13.8-3.5-11.6-6.1-23.1-12.3-34.7-18.4-2.4-1.3-3.4-3.1-2.7-5.1.8-2.6,3.5-3.5,6-2.2,5.8,3,11.6,6.1,17.4,9.2,5.7,3,11.5,6,17.2,9.1,7.2,3.9,14.4,3.8,21.6,0,11.2-6.1,22.5-12.1,33.8-18.1,1-.5,2.3-1,3.4-.9,1.8.1,3,1.4,3.4,3.2.3,2-.6,3.5-2.4,4.4-7.9,4.2-15.8,8.5-23.7,12.7-3.8,2.1-7.6,4.1-11.5,6.2-4.8,2.5-8.8,3.5-13.8,3.5Z"/><path d="M71,102.7c-4.8,0-9.2-1-13.2-3.1-11.9-6.3-23.9-12.6-35.8-19-2.5-1.3-3.3-3.5-2.2-5.6,1.1-2.2,3.5-2.7,6.1-1.4,11.3,6,22.7,12,34,18.1,7.4,4,14.6,4,22,0,11.1-6.1,22.4-12.1,33.6-18,1.2-.6,2.9-1.1,4.1-.6,1.1.4,2.4,1.9,2.6,3.1.2,1.2-.9,2.6-1.6,3.8-.3.5-1.1.7-1.7,1-11.2,6-22.4,12-33.6,18-4.6,2.5-9.4,3.9-14.3,3.8Z"/></svg>