<svg width="48" height="50" viewBox="0 0 48 50" fill="none" xmlns="http://www.w3.org/2000/svg">
<path d="M41.336 31.623V42.9581H6.66395V31.623H0V46.29C0 48.129 1.48971 49.6204 3.33694 49.6204H44.6631C46.5086 49.6204 48 48.1307 48 46.29V31.623H41.336Z" fill="black"/>
<path d="M23.3894 30.4993L13.8486 18.9706C13.8486 18.9706 12.397 17.6001 13.9711 17.6001C15.5452 17.6001 19.3473 17.6001 19.3473 17.6001C19.3473 17.6001 19.3473 16.6781 19.3473 15.2563C19.3473 11.2026 19.3473 3.82524 19.3473 0.817683C19.3473 0.817683 19.1338 0 20.3653 0C21.6067 0 27.0441 0 27.933 0C28.8202 0 28.8003 0.688576 28.8003 0.688576C28.8003 3.60509 28.8003 11.2374 28.8003 15.1586C28.8003 16.4298 28.8003 17.2541 28.8003 17.2541C28.8003 17.2541 31.8493 17.2541 33.7627 17.2541C35.6728 17.2541 34.2344 18.6892 34.2344 18.6892C34.2344 18.6892 26.1172 29.4647 24.985 30.5953C24.1706 31.4146 23.3894 30.4993 23.3894 30.4993Z" fill="black"/>
</svg>
