<svg width="50" height="50" viewBox="0 0 50 50" fill="none" xmlns="http://www.w3.org/2000/svg">
<path d="M10.0052 39.9976C9.17273 39.9976 8.41062 39.9976 7.66023 39.9976C3.27514 39.9859 0.0156311 36.7397 0.00390625 32.3683C0.00390625 24.1179 0.00390625 15.8792 0.00390625 7.6288C0.0156311 3.26921 3.23996 0.0229503 7.6016 0.0112309C15.8676 -0.00048843 24.1336 -0.00048843 32.3996 0.0112309C36.7378 0.0112309 39.9856 3.29265 39.9973 7.6288C39.9973 8.39056 39.9973 9.15232 39.9973 10.0078C40.8533 10.0078 41.6857 10.0078 42.5182 10.0078C43.9838 10.0196 45.3439 10.3828 46.5633 11.2032C48.7323 12.6681 49.9635 14.7073 49.9752 17.3441C50.0104 25.7821 50.0104 34.2317 49.9752 42.6696C49.9635 46.6894 46.7039 49.9591 42.6941 49.9708C34.2287 50.006 25.7634 50.006 17.3098 49.9708C13.2882 49.9474 10.0638 46.6308 10.0052 42.5993C10.0052 41.7555 10.0052 40.9235 10.0052 39.9976ZM14.9883 29.9893C14.9883 34.0325 14.9883 38.0757 14.9883 42.1188C14.9883 44.0642 15.9614 45.037 17.9077 45.037C25.9744 45.037 34.0411 45.037 42.1078 45.037C44.0424 45.037 45.039 44.0408 45.039 42.1188C45.039 34.0559 45.039 25.9813 45.039 17.9184C45.039 15.973 44.0659 15.0003 42.1313 15.0003C34.0411 15.0003 25.951 15.0003 17.8726 15.0003C15.9497 15.0003 14.9883 15.9495 14.9883 17.8715C14.9883 21.9147 14.9883 25.9579 14.9883 30.001V29.9893ZM34.9908 10.0078C34.9908 9.01169 35.0377 8.08586 34.9908 7.17175C34.9322 6.16389 34.1349 5.29666 33.15 5.07399C32.81 4.99195 32.4583 4.98023 32.1065 4.98023C24.0516 4.98023 16.0083 4.98023 7.95335 4.98023C5.9484 4.98023 4.97524 5.95294 4.97524 7.96867C4.97524 15.4925 4.97524 23.0046 4.97524 30.5284C4.97524 31.173 4.96351 31.8175 4.97524 32.4621C5.01041 33.6692 5.67873 34.7239 6.79259 34.888C7.82438 35.0521 8.90306 34.9232 10.0169 34.9232C10.0169 34.7005 10.0169 34.4661 10.0169 34.2317C10.0169 28.7588 10.0169 23.2976 10.0169 17.8246C10.0169 13.2306 13.2413 10.0196 17.8374 10.0196C23.3129 10.0196 28.7767 10.0196 34.2522 10.0196H35.0026L34.9908 10.0078Z" fill="black"/>
<path d="M27.5083 27.4466C27.5083 25.8997 27.5083 24.3762 27.5083 22.8644C27.5083 22.4659 27.5552 22.0323 27.6725 21.6573C28.0477 20.5322 29.185 19.8759 30.3575 20.0517C31.5886 20.2392 32.4562 21.212 32.4797 22.4776C32.5031 23.9191 32.4797 25.3723 32.4797 26.8138C32.4797 27.0247 32.4797 27.2357 32.4797 27.517C33.0425 27.517 33.5349 27.517 34.0391 27.517C35.1764 27.517 36.302 27.4935 37.4393 27.517C38.9166 27.5521 39.9953 28.642 39.9836 30.0249C39.9718 31.4195 38.8697 32.4742 37.3924 32.486C35.9619 32.486 34.5432 32.486 33.1128 32.486C32.9252 32.486 32.7259 32.486 32.4797 32.486C32.4797 34.0446 32.4797 35.533 32.4797 37.0331C32.4797 37.3846 32.4797 37.7362 32.3976 38.0761C32.1279 39.248 31.0844 40.0215 29.9119 39.9863C28.716 39.9395 27.649 39.0722 27.567 37.8534C27.4614 36.3768 27.5201 34.8884 27.4966 33.4001C27.4966 33.1071 27.4966 32.8258 27.4966 32.4742C25.8903 32.4742 24.3543 32.4742 22.8184 32.4742C22.4901 32.4742 22.1501 32.4508 21.8335 32.3688C20.7079 32.0758 19.9341 31.021 20.0044 29.8843C20.0748 28.6889 20.9072 27.6927 22.0915 27.5521C22.9356 27.4584 23.8033 27.4935 24.6592 27.4818C25.5151 27.4818 26.3827 27.4818 27.2387 27.4818C27.2973 27.4818 27.3559 27.4584 27.4966 27.4232L27.5083 27.4466Z" fill="black"/>
</svg>
