<svg width="50" height="39" viewBox="0 0 50 39" fill="none" xmlns="http://www.w3.org/2000/svg">
<path d="M0 7.87506C0.220049 7.14519 0.330073 6.36824 0.672372 5.68546C2.17604 2.66006 4.66993 1.02375 8.20293 1.00021C13.4352 0.976666 18.6797 1.00021 23.912 1.00021C26.3325 1.00021 28.7653 1.00021 31.1858 1.00021C32.3105 1.00021 33.3863 1.16502 34.4254 1.58881C35.2689 1.9302 35.4279 2.57766 34.7922 3.20157C34.401 3.57828 34.0098 3.95498 33.6186 4.33168C33.3374 4.61421 33.0318 4.70839 32.6039 4.62598C32.1149 4.53181 31.6015 4.48472 31.1002 4.47295C23.5208 4.47295 15.9413 4.47295 8.36186 4.47295C6.40587 4.47295 4.91443 5.23813 4.05868 6.9333C3.75306 7.5219 3.61858 8.25176 3.61858 8.92276C3.59413 16.3156 3.59413 23.7084 3.60636 31.1012C3.60636 33.691 5.489 35.5275 8.17848 35.5275C15.868 35.551 23.5697 35.551 31.2592 35.5275C33.9609 35.5275 35.8068 33.7146 35.8557 31.113C35.868 30.1477 35.868 29.1706 35.8557 28.2053C35.8557 27.6991 36.0147 27.2988 36.3936 26.9575C36.8826 26.5219 37.3472 26.051 37.8117 25.6037C38.1296 25.2976 38.4719 25.1681 38.912 25.3447C39.3399 25.5213 39.4499 25.8391 39.4499 26.2511C39.4499 27.9463 39.4621 29.6297 39.4499 31.3249C39.3888 35.5628 35.9413 38.9531 31.5403 38.9767C23.6675 39.0238 15.7946 39.012 7.92176 38.9767C3.94866 38.9531 0.696822 36.1396 0.0977995 32.3373C0.0977995 32.2666 0.0366748 32.196 0.0122249 32.1254C0 24.038 0 15.9506 0 7.87506Z" fill="black"/>
<path d="M36.7233 6.22662C39.4006 8.80468 42.0656 11.371 44.7796 13.9726C44.694 14.0668 44.5717 14.1845 44.4495 14.3022C38.4226 20.1058 32.3957 25.9094 26.3688 31.713C26.1121 31.9602 25.8554 32.0779 25.4764 32.0779C23.1536 32.0661 20.8187 32.0779 18.4959 32.0779C18.3248 32.0779 18.1414 32.0779 17.9336 32.0779C17.9336 31.8778 17.9336 31.7365 17.9336 31.5953C17.9336 29.288 17.9336 26.9924 17.9336 24.6851C17.9336 24.4614 18.0436 24.1907 18.2025 24.0376C24.2783 18.1634 30.3664 12.3127 36.4422 6.45028C36.5277 6.36788 36.6255 6.28548 36.6989 6.21484L36.7233 6.22662ZM23.3126 29.441C24.2743 29.5509 25.0648 29.3076 25.6842 28.7111C26.0999 28.3109 26.5155 27.9106 26.9311 27.5222C27.3346 27.1455 27.738 26.7687 28.0925 26.4391C26.6378 25.0383 25.2319 23.6845 23.8138 22.3189C22.9703 23.1312 22.1512 24.0376 21.2099 24.7911C20.4397 25.4032 20.6475 26.1213 20.6353 26.9218H23.3248V29.441H23.3126ZM26.1488 19.9881C26.3321 20.2 26.4422 20.4354 26.6377 20.5296C26.7844 20.612 27.0289 20.5531 27.2123 20.506C27.3346 20.4707 27.4324 20.3295 27.5424 20.2353C30.6964 17.1981 33.8382 14.1727 36.9923 11.1355C37.0656 11.0649 37.1267 11.006 37.2001 10.9354C37.4568 10.6647 37.4935 10.3821 37.2245 10.0996C36.9434 9.8053 36.6378 9.8053 36.3321 10.0761C36.1854 10.2056 36.051 10.335 35.9165 10.4645C32.848 13.4193 29.7796 16.3741 26.7111 19.3406C26.5277 19.5172 26.381 19.7409 26.161 19.9998L26.1488 19.9881Z" fill="black"/>
<path d="M38.5943 4.42575C39.45 3.60171 40.2813 2.74235 41.1737 1.94186C42.274 0.95301 43.7776 0.941238 44.8656 1.94186C46.3449 3.29564 47.7996 4.6965 49.2055 6.12092C50.2568 7.19217 50.2324 8.64012 49.1933 9.71137C48.362 10.559 47.4696 11.3595 46.626 12.1717C43.9488 9.59365 41.2837 7.02736 38.582 4.42575H38.5943Z" fill="black"/>
</svg>
