<svg width="49" height="48" viewBox="0 0 49 48" fill="none" xmlns="http://www.w3.org/2000/svg">
<path d="M21.696 1.4954C21.2892 4.13342 20.9638 6.39068 20.557 8.59356C20.3943 9.46383 20.6655 9.89896 21.4248 10.2797C23.296 11.1772 25.1401 12.1562 26.9842 13.0809C27.8792 13.516 28.5029 14.1143 28.3402 15.175C28.1775 16.3444 27.3097 16.6708 26.3063 16.8339C24.2452 17.1603 22.2113 17.5138 20.1502 17.7858C19.3638 17.8946 19.0112 18.1665 18.9027 19.0096C18.6316 21.0765 18.2519 23.1162 17.9265 25.1831C17.7637 26.1622 17.4926 27.0868 16.3264 27.25C15.1874 27.4132 14.6179 26.7333 14.1569 25.8086C13.2349 23.9321 12.2586 22.11 11.3636 20.2334C11.0111 19.4991 10.5772 19.2816 9.76361 19.4176C7.72967 19.7983 5.66862 20.0431 3.60756 20.3966C2.60416 20.5598 1.68211 20.5054 1.16684 19.4448C0.678699 18.4113 1.2482 17.6498 1.9533 16.9427C3.36349 15.5557 4.71945 14.0871 6.18388 12.7273C6.94322 12.0474 6.94322 11.4763 6.48219 10.6333C5.53302 8.91991 4.71945 7.17937 3.7974 5.43882C3.30925 4.51416 2.92959 3.5895 3.7974 2.69203C4.66521 1.79456 5.58726 2.14811 6.50931 2.63764C8.29917 3.5895 10.1433 4.43257 11.9331 5.43882C12.7467 5.90115 13.2077 5.68359 13.7772 5.08528C15.2688 3.50791 16.7875 1.93054 18.3875 0.516349C18.8485 0.108409 19.8519 -0.136354 20.4214 0.0812134C20.9909 0.271585 21.3164 1.11466 21.5875 1.46821L21.696 1.4954Z" fill="black"/>
<path d="M49.0052 44.3835C48.9238 45.7161 48.1916 46.9943 46.5916 47.647C44.9373 48.3269 43.3915 48.0278 42.1169 46.7224C39.4864 44.1115 36.883 41.4735 34.2524 38.8355C30.9167 35.4904 27.5811 32.1997 24.2997 28.8002C23.92 28.3923 23.6759 27.6036 23.7302 27.0325C24.1641 23.1162 24.1912 23.1434 28.0692 22.5451C28.937 22.4091 29.4794 22.6539 30.1032 23.2522C35.8524 29.0722 41.6559 34.8649 47.4594 40.6576C48.4086 41.6095 49.0594 42.6158 49.0052 44.3291V44.3835Z" fill="black"/>
</svg>
