<svg width="51" height="50" viewBox="0 0 51 50" fill="none" xmlns="http://www.w3.org/2000/svg">
<path d="M4.17246 35C4.46453 33.2754 4.72879 31.662 5.00695 30.007H0C0.514604 28.4492 1.02921 26.9611 1.50209 25.459C1.58554 25.1669 1.58554 24.8053 1.50209 24.5271C1.02921 23.025 0.514604 21.5369 0 19.993H4.99305C4.71488 18.338 4.45063 16.7246 4.17246 15C9.47149 18.3519 14.701 21.6481 20 25C14.7149 28.338 9.4993 31.6342 4.17246 35Z" fill="black"/>
<path d="M30 25C35.3129 21.6481 40.5285 18.3519 45.8275 15C45.5494 16.7107 45.2851 18.3102 45.007 19.9652H50C49.5828 21.217 49.249 22.4131 48.79 23.5675C48.4006 24.541 48.3727 25.4172 48.79 26.3908C49.2629 27.5313 49.5967 28.7413 50.0139 29.993H45.0209C45.299 31.6481 45.5633 33.2615 45.8554 34.9861C40.5563 31.6342 35.3268 28.338 30.0278 25H30Z" fill="black"/>
<path d="M23.2948 34.1375H21.6953V15.876H23.2948V34.1375Z" fill="black"/>
<path d="M28.2908 34.1377H26.6914V15.8623H28.2908V34.1377Z" fill="black"/>
</svg>
