<svg width="50" height="48" viewBox="0 0 50 48" fill="none" xmlns="http://www.w3.org/2000/svg">
<path d="M0 0.13623C0.9375 0.13623 1.73828 0.13623 2.53906 0.13623C6.89453 0.13623 11.25 0.13623 15.625 0.155783C16.0742 0.155783 16.6211 0.390411 16.9727 0.703248C18.1641 1.79818 19.3164 2.97132 20.4297 4.14446C20.8984 4.63327 21.3867 4.80924 22.0508 4.80924C30.9375 4.78969 39.8242 4.80924 48.6914 4.80924H50C50 5.20029 50 5.55223 50 5.88462C50 17.968 50 30.0513 50 42.1347C50 45.6932 47.8516 47.8635 44.2969 47.8635C31.4062 47.8635 18.5352 47.8635 5.64453 47.8635C2.16797 47.8635 0 45.6932 0 42.1933C0 28.5067 0 14.82 0 1.15295C0 0.859667 0 0.566382 0 0.155783V0.13623ZM3.51562 3.65565V4.73103C3.51562 17.1663 3.51562 29.6212 3.51562 42.0565C3.51562 43.8357 4.0625 44.3636 5.85938 44.3636C18.6133 44.3636 31.3672 44.3636 44.1211 44.3636C45.9766 44.3636 46.5039 43.8553 46.5039 41.9978C46.5039 31.1462 46.5039 20.2947 46.5039 9.4627V8.32866C45.9961 8.32866 45.625 8.32866 45.2344 8.32866C36.9922 8.32866 28.7695 8.32866 20.5273 8.30911C20.0195 8.30911 19.3945 8.03538 19.0234 7.68343C17.793 6.56895 16.6602 5.33715 15.4687 4.18357C15.2344 3.94894 14.8828 3.69476 14.5898 3.69476C10.957 3.65565 7.30469 3.6752 3.51562 3.6752V3.65565Z" fill="black"/>
<path d="M28.7109 37.9506C27.4219 37.9506 26.3672 37.9897 25.293 37.9114C25.0391 37.9114 24.7266 37.54 24.5898 37.2662C23.6523 35.2523 22.7344 33.258 21.875 31.205C21.6016 30.5402 21.2305 30.3642 20.5469 30.3838C18.4375 30.4229 16.3086 30.4229 14.1992 30.3838C13.5547 30.3838 13.2227 30.5598 12.9688 31.1659C12.1094 33.1993 11.1719 35.2132 10.293 37.2467C10.0586 37.7746 9.76562 37.9701 9.17969 37.9506C8.22266 37.9114 7.24609 37.9506 6.13281 37.9506C9.88281 29.5235 13.5742 21.2333 17.3828 12.728C21.1914 21.2137 24.8828 29.4844 28.6914 37.9506H28.7109ZM17.4219 21.3115C16.543 23.2863 15.7617 25.0265 14.9414 26.8644H19.9023C19.082 25.0265 18.3008 23.2863 17.4219 21.3115Z" fill="black"/>
<path d="M42.9717 22.8955V37.9117H39.6123C39.5538 37.5793 39.5147 37.3056 39.4561 36.895C37.6006 37.8726 35.667 38.2441 33.6358 37.7357C31.5655 37.2078 30.003 36.0151 28.9483 34.1968C27.3077 31.4203 27.6592 27.9205 29.7686 25.4569C32.1123 22.7391 35.2959 22.2112 39.4366 23.8731C39.4952 23.5603 39.5538 23.267 39.6123 22.8955H42.9717ZM39.5147 30.4232C39.5147 28.1746 37.7569 26.3758 35.5303 26.3367C33.3038 26.3172 31.4678 28.0964 31.4483 30.3058C31.4092 32.5935 33.2256 34.4314 35.4913 34.4509C37.7178 34.4509 39.5147 32.6521 39.5342 30.4232H39.5147Z" fill="black"/>
</svg>
