<svg width="43" height="50" viewBox="0 0 43 50" fill="none" xmlns="http://www.w3.org/2000/svg">
<path d="M0.499654 50.0002C0.127725 49.7556 -0.00930144 49.4133 0.000486166 48.9634C0.0200614 48.0831 0.000486166 47.2028 0.000486166 46.3323C0.000486166 45.765 0.284327 45.4227 0.734557 45.4227C1.18479 45.4227 1.45884 45.765 1.45884 46.3421C1.45884 47.0561 1.45884 47.7701 1.45884 48.5037H18.5089V24.5307H1.47842C1.47842 24.7263 1.47842 24.9121 1.47842 25.098C1.47842 30.9861 1.47842 36.8742 1.47842 42.7721C1.47842 43.5545 1.23372 43.9262 0.734557 43.9164C0.245176 43.9066 0.0102738 43.5545 0.0102738 42.7916C0.0102738 36.5807 0.0102738 30.3601 0.0102738 24.1394C0.0102738 23.22 0.206026 23.0244 1.12606 23.0244C7.05735 23.0244 12.9789 23.0244 18.9101 23.0244C19.8204 23.0244 20.0259 23.2298 20.0259 24.1492C20.0259 32.3847 20.0259 40.6203 20.0259 48.846C20.0259 49.3155 19.9476 49.7067 19.5463 49.9904H0.499654V50.0002Z" fill="black"/>
<path d="M22.6789 50C22.3069 49.7555 22.1797 49.4132 22.1797 48.9632C22.1895 42.9969 22.1797 37.0305 22.1797 31.0544C22.1797 30.223 22.4146 29.9883 23.2661 29.9883C29.2072 29.9883 35.1483 29.9883 41.0893 29.9883C41.9604 29.9883 42.1953 30.223 42.1953 31.0837C42.1953 37.0208 42.1953 42.9578 42.1953 48.8948C42.1953 49.3545 42.0779 49.7164 41.7158 49.9902H22.6593L22.6789 50ZM40.7076 48.5231V31.4945H23.687V48.5231H40.7076Z" fill="black"/>
<path d="M10.001 20.2173C7.03532 20.2173 4.06967 20.2173 1.11381 20.2173C0.213352 20.2173 0.0078125 20.0119 0.0078125 19.0925C0.0078125 13.175 0.0078125 7.24779 0.0078125 1.33034C0.0078125 0.459839 0.232928 0.225098 1.10402 0.225098C7.0451 0.225098 12.9862 0.225098 18.937 0.225098C19.7984 0.225098 20.0333 0.459839 20.0333 1.34012C20.0333 7.25757 20.0333 13.1848 20.0333 19.1022C20.0333 20.0021 19.8179 20.2271 18.9077 20.2271C15.942 20.2271 12.9764 20.2271 10.0205 20.2271L10.001 20.2173ZM6.81999 13.5956C3.31602 11.9133 2.86579 8.04004 4.3633 5.70241C5.95868 3.22784 9.23753 2.43558 11.7334 3.97118C12.9666 4.72431 13.7986 5.81 14.1509 7.20867C14.6305 9.09638 14.1509 10.7689 12.9079 12.2458C14.1215 14.3487 15.3254 16.4321 16.5391 18.5154C16.5978 18.6132 16.725 18.7306 16.8229 18.7306C17.3808 18.7501 17.9485 18.7404 18.526 18.7404V1.7118H1.50532V18.7501C2.2296 18.7501 2.90495 18.7599 3.59008 18.7404C3.71732 18.7404 3.90328 18.6328 3.96201 18.5154C4.91141 16.8918 5.85102 15.2584 6.8102 13.5956H6.81999ZM10.2554 10.5831C8.66006 13.3413 7.11362 16.0213 5.55739 18.7208H14.9633C13.3973 16.0017 11.8508 13.3413 10.2652 10.5831H10.2554ZM7.57364 12.2361C7.61279 12.1969 7.63236 12.1676 7.65194 12.148C8.26855 11.0819 8.88517 10.0158 9.51158 8.94967C9.95202 8.19654 10.5491 8.18676 10.9993 8.93989C11.1951 9.26266 11.3712 9.58543 11.5572 9.9082C11.7432 10.2212 11.9291 10.5244 12.1347 10.8569C13.1232 9.41915 13.1036 7.57056 12.1347 6.28926C11.0384 4.85147 9.35498 4.33308 7.62257 4.90037C6.10549 5.3992 4.98971 7.00327 5.00928 8.65624C5.02886 10.2603 6.08592 11.7568 7.58342 12.2458L7.57364 12.2361Z" fill="black"/>
<path d="M40.7154 25.5086V1.50626H23.685V25.489C23.8416 25.489 23.9982 25.5184 24.1548 25.5184C25.2119 25.5184 26.2689 25.5184 27.326 25.5184C27.4532 25.5184 27.5903 25.5184 27.7175 25.5184C28.1873 25.5771 28.4614 25.8705 28.4418 26.2813C28.4222 26.6921 28.1384 26.966 27.649 26.966C26.1025 26.9757 24.5561 26.9757 23.0097 26.966C22.4616 26.966 22.2071 26.6921 22.1875 26.1541C22.1875 26.0368 22.1875 25.9292 22.1875 25.8118C22.1875 17.5958 22.1875 9.37989 22.1875 1.16393C22.1875 0.185837 22.3735 0 23.362 0C29.2444 0 35.1169 0 40.9993 0C42.0172 0 42.2032 0.185837 42.2032 1.18349C42.2032 9.37989 42.2032 17.5861 42.2032 25.7825C42.2032 26.7801 42.0172 26.966 40.9993 26.966C37.7596 26.966 34.5199 26.966 31.2802 26.966C31.104 26.966 30.918 26.966 30.7419 26.9464C30.3699 26.8975 30.1546 26.6628 30.1155 26.3009C30.0861 25.939 30.2623 25.6651 30.6244 25.5673C30.8202 25.5086 31.0453 25.4988 31.2508 25.4988C34.1969 25.4988 37.143 25.4988 40.089 25.4988C40.2848 25.4988 40.4708 25.4988 40.7057 25.4988L40.7154 25.5086Z" fill="black"/>
<path d="M32.1801 12.2166C30.2128 12.2166 28.2455 12.2166 26.2782 12.2069C26.0237 12.2069 25.7105 12.1188 25.5343 11.9623C25.1624 11.6396 25.3092 11.0234 25.779 10.8473C25.965 10.7691 26.1901 10.7593 26.3956 10.7593C30.2617 10.7593 34.1376 10.7593 38.0037 10.7593C38.082 10.7593 38.1701 10.7593 38.2484 10.7593C38.7378 10.7984 39.051 11.0918 39.051 11.5026C39.051 11.9232 38.7378 12.2166 38.2288 12.2166C36.2126 12.2166 34.1963 12.2166 32.1801 12.2166Z" fill="black"/>
<path d="M32.1801 19.5423C30.2128 19.5423 28.2455 19.5423 26.2782 19.5325C26.0237 19.5325 25.7105 19.4445 25.5343 19.288C25.1624 18.9652 25.3092 18.349 25.779 18.173C25.965 18.0947 26.1901 18.085 26.3956 18.085C30.2617 18.085 34.1376 18.085 38.0037 18.085C38.082 18.085 38.1701 18.085 38.2484 18.085C38.7378 18.1241 39.051 18.4175 39.051 18.8283C39.051 19.2489 38.7378 19.5423 38.2288 19.5423C36.2126 19.5423 34.1963 19.5423 32.1801 19.5423Z" fill="black"/>
<path d="M10.0705 33.7832C12.0182 33.7832 13.9757 33.7636 15.9235 33.8028C16.2073 33.8028 16.5694 33.9593 16.7456 34.1647C17.049 34.5266 16.7946 35.0547 16.3248 35.1917C16.1584 35.2406 15.9724 35.2406 15.7962 35.2406C11.9399 35.2406 8.09337 35.2406 4.23705 35.2406C4.13918 35.2406 4.0413 35.2406 3.94343 35.2406C3.45405 35.2014 3.13105 34.8982 3.14084 34.4874C3.14084 34.0766 3.47362 33.7832 3.963 33.7832C5.99882 33.7832 8.02486 33.7832 10.0607 33.7832H10.0705Z" fill="black"/>
<path d="M10.0724 41.1094C12.0201 41.1094 13.9777 41.0996 15.9254 41.1192C16.1897 41.1192 16.5127 41.2267 16.6986 41.4126C17.0314 41.7354 16.865 42.3222 16.4148 42.4885C16.2288 42.557 16.0037 42.5667 15.7982 42.5667C11.9418 42.5667 8.09531 42.5667 4.23899 42.5667C4.14112 42.5667 4.04324 42.5667 3.94536 42.5667C3.45598 42.5276 3.14278 42.2244 3.15257 41.8136C3.16235 41.4028 3.48535 41.1094 3.98451 41.1094C6.02034 41.1094 8.04637 41.1094 10.0822 41.1094H10.0724Z" fill="black"/>
<path d="M32.2214 7.11084C34.13 7.11084 36.0288 7.11084 37.9373 7.11084C38.1135 7.11084 38.2995 7.11084 38.4757 7.14018C38.828 7.19887 39.014 7.44339 39.0433 7.78572C39.0629 8.14762 38.8965 8.42148 38.5344 8.51929C38.3484 8.5682 38.1527 8.57798 37.9569 8.57798C34.1104 8.57798 30.2736 8.57798 26.4271 8.57798C26.3292 8.57798 26.2314 8.57798 26.1335 8.57798C25.6441 8.52907 25.3211 8.22586 25.3407 7.82485C25.3505 7.41405 25.6735 7.12062 26.1726 7.12062C28.1889 7.12062 30.2149 7.12062 32.2312 7.12062L32.2214 7.11084Z" fill="black"/>
<path d="M32.201 14.4268C34.1096 14.4268 36.0084 14.4268 37.917 14.4268C38.0834 14.4268 38.24 14.4268 38.4063 14.4463C38.8076 14.4952 39.023 14.7495 39.0328 15.131C39.0425 15.5124 38.8468 15.7765 38.4455 15.8548C38.2889 15.8841 38.1225 15.8939 37.9561 15.8939C34.1096 15.8939 30.2728 15.8939 26.4263 15.8939C26.3089 15.8939 26.2012 15.8939 26.0837 15.8939C25.6237 15.845 25.3203 15.5516 25.3203 15.1603C25.3203 14.7495 25.6433 14.4463 26.1327 14.4463C28.1489 14.4463 30.175 14.4463 32.1912 14.4463L32.201 14.4268Z" fill="black"/>
<path d="M10.0238 31.5731C8.11524 31.5731 6.21644 31.5731 4.30786 31.5731C4.14147 31.5731 3.98487 31.5731 3.81848 31.5535C3.41719 31.5144 3.18229 31.2699 3.16271 30.8884C3.13335 30.4776 3.35846 30.2136 3.76954 30.1353C3.92614 30.106 4.09253 30.0962 4.25892 30.0962C8.10545 30.0962 11.9422 30.0962 15.7887 30.0962C15.9355 30.0962 16.0824 30.0962 16.2292 30.1255C16.6403 30.194 16.8752 30.4483 16.8654 30.8591C16.8556 31.2699 16.6109 31.5144 16.19 31.5535C16.0236 31.5633 15.867 31.5633 15.7006 31.5633C13.8116 31.5633 11.9226 31.5633 10.0336 31.5633L10.0238 31.5731Z" fill="black"/>
<path d="M9.97535 38.8983C8.08634 38.8983 6.19733 38.8983 4.30832 38.8983C4.13215 38.8983 3.94618 38.8983 3.77 38.8787C3.38829 38.8298 3.18275 38.5755 3.16317 38.2234C3.13381 37.8615 3.31977 37.5974 3.68192 37.4996C3.83852 37.4605 4.00491 37.4409 4.16151 37.4409C8.05698 37.4409 11.9427 37.4409 15.8381 37.4409C15.9849 37.4409 16.1318 37.4507 16.2786 37.48C16.6799 37.5583 16.8756 37.8224 16.8658 38.2038C16.856 38.5853 16.6309 38.8396 16.2296 38.8885C16.073 38.9081 15.9066 38.9081 15.7402 38.9081C13.8219 38.9081 11.8937 38.9081 9.97535 38.9081V38.8983Z" fill="black"/>
<path d="M28.3447 3.88325C29.0396 3.88325 29.7443 3.88325 30.4392 3.88325C30.9482 3.88325 31.2614 4.1669 31.2712 4.58748C31.281 4.99828 30.9775 5.33083 30.4784 5.34061C29.0298 5.36017 27.5812 5.36017 26.1327 5.34061C25.6335 5.34061 25.3203 5.01784 25.3203 4.60704C25.3203 4.17668 25.6531 3.89303 26.1816 3.88325C26.8961 3.87347 27.6106 3.88325 28.3251 3.88325H28.3447Z" fill="black"/>
<path d="M36.075 21.6548C36.7699 21.6548 37.4746 21.6548 38.1696 21.6548C38.7177 21.6548 39.0309 21.9287 39.0407 22.359C39.0505 22.8089 38.7275 23.1024 38.15 23.1121C36.7699 23.1219 35.3899 23.1219 34 23.1121C33.4128 23.1121 33.1094 22.8383 33.1094 22.3688C33.1094 21.9091 33.4128 21.6548 34.0098 21.6548C34.695 21.6548 35.3801 21.6548 36.0554 21.6548H36.075Z" fill="black"/>
<path d="M6.12799 28.3548C5.43307 28.3548 4.72837 28.3548 4.03344 28.3548C3.49513 28.3548 3.16235 28.0712 3.15256 27.6506C3.14277 27.23 3.46576 26.9072 3.99429 26.9072C5.4135 26.8975 6.82291 26.8975 8.24212 26.9072C8.78044 26.9072 9.09364 27.2202 9.09364 27.6506C9.09364 28.0809 8.76086 28.3548 8.22254 28.3646C7.52762 28.3744 6.82291 28.3646 6.12799 28.3646V28.3548Z" fill="black"/>
<path d="M13.9178 46.117C13.2033 46.117 12.4888 46.117 11.7743 46.117C11.2457 46.117 10.9619 45.853 10.9423 45.4226C10.9228 44.9727 11.2164 44.6695 11.7645 44.6597C13.1935 44.6401 14.6225 44.6401 16.0612 44.6597C16.5702 44.6597 16.8736 44.9629 16.8834 45.3835C16.8834 45.8236 16.5702 46.1073 16.0319 46.117C15.337 46.1268 14.6323 46.117 13.9373 46.117H13.9178Z" fill="black"/>
<path d="M35.4828 38.4976H34.4258V42.3611C34.6117 42.3709 34.7683 42.3611 34.9249 42.3904C35.3066 42.4491 35.5611 42.6643 35.5807 43.0555C35.6003 43.7695 35.6003 44.4835 35.5807 45.1976C35.5709 45.6377 35.2968 45.892 34.8564 45.9018C33.0848 45.9116 31.3133 45.9116 29.5319 45.9018C29.0915 45.9018 28.8175 45.6475 28.7979 45.2073C28.7685 44.4933 28.7587 43.7793 28.7979 43.0653C28.8272 42.5469 29.0621 42.4198 29.9528 42.3415V38.4976H28.886C28.886 38.84 28.9055 39.1627 28.886 39.4757C28.8566 40.0137 28.6021 40.2778 28.054 40.2973C27.4178 40.3169 26.7816 40.3169 26.1454 40.2973C25.6071 40.2778 25.3331 40.0039 25.3233 39.4659C25.3037 37.9499 25.3037 36.4436 25.3233 34.9276C25.3233 34.3407 25.6267 34.0767 26.2237 34.0767C30.1975 34.0767 34.1615 34.0767 38.1353 34.0767C38.7323 34.0767 38.9966 34.3407 38.9966 34.9472C39.0063 36.4436 39.0063 37.9401 38.9966 39.4366C38.9966 40.0332 38.7225 40.2778 38.1157 40.2973C37.5284 40.3071 36.9412 40.3071 36.3539 40.2973C35.7275 40.2778 35.473 40.0137 35.4535 39.3975C35.4535 39.104 35.4535 38.8204 35.4535 38.4878L35.4828 38.4976ZM26.8404 35.5829V38.8204H27.3689C27.3982 38.7617 27.4276 38.7422 27.4276 38.7128C27.4276 38.4194 27.4276 38.126 27.4472 37.8325C27.4668 37.2848 27.7212 37.0207 28.2596 37.0109C29.0524 37.0012 29.8549 37.0012 30.6575 37.0109C31.1665 37.0109 31.4601 37.2848 31.4699 37.7934C31.4797 39.554 31.4797 41.3048 31.4699 43.0653C31.4699 43.525 31.1861 43.7793 30.7358 43.8282C30.5988 43.8478 30.452 43.8478 30.2856 43.8576V44.4053H34.093V43.8673C33.1534 43.7793 32.938 43.6228 32.9282 42.9871C32.9185 41.2656 32.9282 39.5344 32.9282 37.813C32.9282 37.2946 33.2023 37.0207 33.7113 37.0109C34.5236 36.9914 35.336 36.9914 36.1582 37.0109C36.6671 37.0109 36.9314 37.2946 36.951 37.8032C36.9607 38.1357 36.951 38.4781 36.951 38.8008H37.5284V35.5731H26.8404V35.5829Z" fill="black"/>
</svg>
