<?xml version="1.0" encoding="UTF-8"?><svg id="Layer_1" xmlns="http://www.w3.org/2000/svg" width="53" height="53" viewBox="0 0 53 53"><path d="M32,25.6c-4.1-4.2-7.6-7.8-11.4-11.7-4.2,4.3-8.4,8.5-12.6,12.8-.7.7-1.3,1.6-2.2,2.1-.5.3-1.4,0-2.1.1,0-.7-.2-1.5,0-2.2.2-.5.8-.9,1.2-1.3,5.2-5.2,10.4-10.4,15.9-15.9,3.6,3.8,7.1,7.5,10.6,11.1,4.2-4.2,8.1-8.1,12.2-12.1-1.4,0-2.6,0-3.9,0-1.1,0-2-.5-1.7-1.6.2-.6,1.1-1.4,1.8-1.4,3.1-.1,6.2,0,9.6,0,0,3.5,0,6.9,0,10.3,0,.4-1,1-1.6,1.1-.4,0-1.2-.7-1.2-1.2-.2-1.4,0-2.8,0-4.6-4.8,5-9.4,9.6-14.3,14.7Z"/><path d="M25,34.4c0,3.5,0,7,0,10.5,0,2.5-.2,2.7-2.8,2.7-1.1,0-2.2,0-3.2,0-1.8.1-2.4-.7-2.4-2.4,0-7.2,0-14.3,0-21.5,0-1.9.8-2.7,2.7-2.6,6.7,0,5.7-.4,5.8,5.7,0,2.5,0,5,0,7.5Z"/><path d="M46.9,35.4c0,3.2,0,6.3,0,9.5,0,2.4-.3,2.7-2.6,2.7-1.1,0-2.2,0-3.2,0-2,.2-2.6-.8-2.6-2.7,0-6.5,0-13,0-19.4,0-1.8.6-2.7,2.5-2.5,1.3,0,2.6,0,3.8,0,1.5,0,2.2.7,2.2,2.2,0,3.4,0,6.8,0,10.1Z"/><path d="M36,38.2c0,2.4,0,4.9,0,7.3,0,1.4-.7,2.1-2.1,2.1-1.2,0-2.4,0-3.7,0-2.4,0-2.8-.4-2.8-2.9,0-4.4,0-8.8,0-13.2,0-2.4.4-2.8,2.9-2.8,6.4,0,5.6-.7,5.7,5.6,0,1.3,0,2.6,0,3.9Z"/><path d="M14.1,39.8c0,2,0,3.9,0,5.9,0,1.4-.6,2-2,2-1.6,0-3.1,0-4.7,0-1.2,0-1.8-.6-1.8-1.7,0-4.1,0-8.1,0-12.2,0-.6.9-1.6,1.5-1.7,1.7-.2,3.5-.3,5.2,0,.6,0,1.4,1.2,1.5,1.8.2,1.9,0,3.9,0,5.9Z"/></svg>