<?xml version="1.0" encoding="UTF-8"?><svg id="Layer_1" xmlns="http://www.w3.org/2000/svg" width="53" height="53" viewBox="0 0 53 53"><path d="M14.3,10.1c-.6-.2-1.2-.3-1.4-.6-.6-.8-1.4-1.7-1.3-2.6,0-.8,1-1.6,1.8-2.2.4-.3,1.2-.3,1.8-.3,7.6,0,15.2,0,22.9,0,.6,0,1.4,0,1.8.3.7.6,1.6,1.5,1.7,2.3,0,.8-.7,2.1-1.4,2.4-1.1.5-1.3,1.2-1.3,2.2,0,1.7-.1,3.4-.4,5-.7,3.9-3.2,6.5-6.7,8.3-.6.3-1.4.9-1.4,1.4,0,.5.8,1.2,1.3,1.5,5.2,2.4,7.1,6.7,7.2,12.2,0,1.5-.4,3,1.7,3.7.6.2,1.1,2,.8,2.8-.3.8-1.5,1.7-2.4,1.8-2,.3-4.1,0-6.2,0-6,0-12,0-18,0-1.6,0-2.9-.4-3.3-2.1-.4-1.6.5-2.6,1.9-3.3.4-.2.7-.9.8-1.4.2-1.8.1-3.6.4-5.3.7-4,3.1-6.7,6.7-8.5.6-.3,1.5-1,1.4-1.4-.1-.6-.8-1.3-1.4-1.6-5-2.4-6.9-6.5-7-11.8,0-1,0-2.1,0-3.1ZM35.9,42.8c.7-7.1-.8-10.5-6.2-12.8-1.5-.6-2.2-1.9-2.2-3.6,0-1.8.9-2.9,2.5-3.6,5-2.4,7.2-7.2,5.7-12.6h-18.6c-.8,6.9.8,10.6,6.1,12.7,1.5.6,2.2,1.9,2.3,3.4.2,1.7-.9,3-2.8,3.9-4.9,2.3-7.2,7.5-5.5,12.6h18.6Z"/><path d="M19,13.9h15c.3,2.8-.7,4.9-2.8,6.5-2.7,1.9-5.6,2.2-8.6.4-2.6-1.5-3.7-3.8-3.6-6.9Z"/><path d="M19.1,41c.9-2.7,4.4-4.8,7.7-4.7,3.1,0,6.5,2.2,7.3,4.7h-15Z"/></svg>