<?xml version="1.0" encoding="UTF-8"?><svg id="Layer_1" xmlns="http://www.w3.org/2000/svg" width="53" height="53" viewBox="0 0 53 53"><path d="M17.2,34.3c0-3,0-5.9,0-8.9,0-.5,0-.7.6-.8,1.3-.2,2.3-1.1,3.2-2,1.9-2.1,3.6-4.3,4.9-6.8.6-1.3.9-2.6.9-4,0-.8,0-1.6,0-2.4,0-1,.4-1.3,1.4-1.3,2.5,0,4.5,1.8,4.6,4.3,0,2-.6,3.9-1.2,5.8-.2.6-.4,1.3-.6,1.9-.5,1.8.7,3.5,2.6,3.5,2.6,0,5.3,0,7.9,0,.5,0,1.1,0,1.5.2,1,.3,1.7,1.2,1.6,2.3,0,.8-.2,1.7-.5,2.5-.3.9-.2,1.6.2,2.4.5.9.5,1.8-.1,2.6-.7,1-.9,2-.6,3.2.1.5-.2,1.1-.4,1.6,0,.2-.3.4-.5.6-1.1.8-1.7,1.7-1.6,3.2,0,1.4-1.1,2.1-2.3,2.5-.7.2-1.4.3-2,.3-4.6,0-9.1,0-13.7,0-1.7,0-3.3-.5-5-.8-.6-.1-.8-.4-.8-1.1,0-2.9,0-5.8,0-8.7Z"/><path d="M8.5,24.7h7.3v19.4h-7.3v-19.4Z"/></svg>