<?xml version="1.0" encoding="UTF-8"?><svg id="Layer_1" xmlns="http://www.w3.org/2000/svg" width="53" height="53" viewBox="0 0 53 53"><path d="M13.2,46.9c0-.4.2-.7.3-1.1,1.4-4.3,2.8-8.7,4.2-13,.4-1.2.3-1.5-.8-2.3-3.7-2.7-7.4-5.4-11.1-8.1-.3-.2-.5-.4-1-.8.6,0,.9-.1,1.2-.1,4.6,0,9.3,0,13.9,0,1.2,0,1.5-.2,1.9-1.4,1.4-4.4,2.8-8.7,4.2-13.1.1-.3.3-.6.5-1.2.2.5.4.8.5,1.1,1.4,4.4,2.8,8.7,4.2,13.1.4,1.4.6,1.5,2,1.5,4.6,0,9.1,0,13.7,0,.3,0,.7,0,1.3.1-.4.4-.6.6-.9.7-3.7,2.7-7.4,5.4-11.1,8.1-1.2.9-1.3,1-.8,2.5,1.4,4.3,2.8,8.6,4.2,12.8.1.4.2.7.4,1.4-.5-.3-.8-.5-1.1-.7-3.7-2.7-7.4-5.4-11.2-8.1-1-.7-1.3-.7-2.2,0-3.7,2.7-7.4,5.4-11.2,8.1-.3.2-.6.4-.9.6,0,0-.1,0-.2-.1Z"/></svg>