<?xml version="1.0" encoding="UTF-8"?><svg id="Layer_1" xmlns="http://www.w3.org/2000/svg" width="53" height="53" viewBox="0 0 53 53"><path d="M5.8,13.2h41.5c-.8.7-1.2,1.1-1.6,1.5-5.8,4.4-11.6,8.8-17.4,13.3-1.3,1-2.1,1-3.4,0-5.6-4.4-11.4-8.7-17-13-.5-.4-1.1-.9-2.1-1.7Z"/><path d="M47.4,39.8H6c.5-.6.7-1,1.1-1.3,4.3-3.5,8.7-6.9,13-10.4,1-.8,1.7-.8,2.7,0,1.3,1,2.7,2.6,4.1,2.6,1.3,0,2.5-1.8,3.9-2.5.6-.3,1.8-.5,2.3-.2,4.6,3.6,9.1,7.3,13.6,10.9.2.2.3.4.7,1Z"/><path d="M4,39V13.9c5.5,4.2,10.6,8.1,16,12.2-5.4,4.3-10.5,8.4-16,12.9Z"/><path d="M49,14.2v24.6c-5.4-4.3-10.4-8.4-15.7-12.6,5.3-4,10.3-7.9,15.7-11.9Z"/></svg>