<?xml version="1.0" encoding="UTF-8"?><svg id="Layer_1" xmlns="http://www.w3.org/2000/svg" width="53" height="53" viewBox="0 0 53 53"><path d="M23.9,21.6c-8.6,3.1-14.3,8.9-17.1,17.9-.2-.3-.4-.6-.6-.9-2.8-5.1-3-10.2-.2-15.3,2.6-4.9,6.5-8.7,11.3-11.4,9.5-5.4,19.7-6.9,30.4-5.4.3,0,.6.1,1.2.2-.4.3-.7.5-.9.7-4.2,3.2-7.3,7.1-8.3,12.5-.6,3.3-1.3,6.5-2.3,9.7-1.5,4.9-3.7,9.5-7.4,13.2-4.1,4.1-10.3,5.4-15.7,3.1-1.8-.8-2.5-2.5-2.8-4.4-.2-1.9.2-3.7.9-5.5,2.3-5.4,6.1-9.7,10.6-13.5.3-.2.6-.5.8-.7,0,0-.1-.1-.2-.2Z"/></svg>