<?xml version="1.0" encoding="UTF-8"?><svg id="Layer_1" xmlns="http://www.w3.org/2000/svg" width="53" height="53" viewBox="0 0 53 53"><path d="M26.5,41.7c-4.5,0-9,0-13.5,0-1.9,0-3.4-1.5-3.4-3.4,0-6.8,0-13.5,0-20.3,0-1.9,1.5-3.4,3.4-3.4,1.6,0,3.2,0,4.9,0,.3,0,.6,0,.8-.4.8-.9,1.7-1.9,2.5-2.8.1-.1.4-.3.6-.3,3.2,0,6.3,0,9.5,0,.2,0,.4.1.6.2.9.9,1.7,1.9,2.6,2.8.2.2.5.3.7.3,1.7,0,3.3,0,5,0,1.8,0,3.3,1.5,3.3,3.3,0,6.8,0,13.6,0,20.4,0,1.9-1.5,3.3-3.4,3.3-4.5,0-9.1,0-13.6,0ZM26.5,19.7c-4.7,0-8.4,3.8-8.4,8.5,0,4.6,3.8,8.4,8.5,8.4,4.6,0,8.4-3.8,8.4-8.4,0-4.7-3.8-8.5-8.5-8.5Z"/><path d="M26.5,22.8c3.1,0,5.4,2.4,5.4,5.4,0,3.1-2.4,5.4-5.4,5.4-3.1,0-5.4-2.4-5.4-5.4,0-3.1,2.4-5.4,5.4-5.4Z"/></svg>