<?xml version="1.0" encoding="UTF-8"?><svg id="Layer_1" xmlns="http://www.w3.org/2000/svg" width="53" height="53" viewBox="0 0 53 53"><path d="M8.4,26.4c0-9.8,8.1-17.9,18-18,10,0,18.2,8.1,18.2,18.2,0,9.8-8.1,17.9-18,18-10.1,0-18.1-8-18.2-18.2ZM29.2,25.5c0,0-.2,0-.2,0,0-.3,0-.7,0-1,0-3.4,0-6.7,0-10.1,0-.9-.3-1.2-1.1-1.1-.8,0-1.6,0-2.5,0-.9,0-1.2.3-1.2,1.2,0,3.4,0,6.9,0,10.3,0,.3,0,.7,0,1.3-.4-.3-.7-.5-.9-.7-.6-.5-1.1-1-1.7-1.5-.5-.5-.9-.4-1.3,0-.6.7-1.2,1.4-1.8,2-.4.4-.4.8,0,1.2,2.7,2.4,5.3,4.8,8,7.2.4.4.8.4,1.2,0,2.4-2.7,4.8-5.3,7.2-8,.4-.4.4-.8,0-1.2-.6-.5-1.2-1.1-1.8-1.7-.7-.7-1.2-.6-1.8.1-.6.7-1.2,1.4-1.9,2.1ZM26.6,35.9c-2.6,0-5.2,0-7.8,0-1.4,0-2.3.8-2.3,2,0,1.2.9,2,2.4,2,5.1,0,10.2,0,15.2,0,1.4,0,2.4-.8,2.4-1.9,0-1.2-.9-2-2.4-2-2.5,0-5,0-7.5,0Z"/></svg>