<?xml version="1.0" encoding="UTF-8"?><svg id="Layer_1" xmlns="http://www.w3.org/2000/svg" width="53" height="53" viewBox="0 0 53 53"><path d="M26.4,42.5c-5,0-9.9,0-14.9,0-3.3,0-4.6-1.3-4-4.5.4-2.2,1.2-4.5,2.4-6.3,2.7-4,4.6-8.2,5.4-12.9.8-4.7,3.1-8.4,7.6-10.4.4-.2.5-1,.8-1.3.8-.8,1.8-2.1,2.7-2.1.9,0,1.8,1.3,2.6,2.1.4.4.5,1.1.9,1.3,4.2,1.9,6.6,5.2,7.4,9.6,1,5.3,2.9,9.9,6,14.3,1.2,1.8,1.7,4.2,2,6.4.3,2.9-.7,3.8-3.7,3.8-5.1,0-10.2,0-15.3,0h0Z"/><path d="M34,43.2c-1.8,3.3-4.1,4.9-7.4,4.9-3.3,0-5.7-1.6-7.1-4.9h14.6Z"/></svg>