<?xml version="1.0" encoding="UTF-8"?><svg id="Layer_1" xmlns="http://www.w3.org/2000/svg" width="53" height="53" viewBox="0 0 53 53"><path d="M35.5,14.8c-1.4,1.2-2.6,2.5-3.9,3.5-.3.3-1.2.1-1.7-.1-5.7-2.9-12.3-1.2-15.7,4.1-2.7,4.2-2.4,9.7.7,13.7,3.1,4,8.4,5.6,13.3,3.9,4.7-1.6,8-6.1,7.9-11.1,0-2-.8-4-1.4-5.9-.3-.9-.3-1.3.3-2,1.1-1.1,2.1-2.3,3.2-3.4,4.8,4.9,6.3,15.6-.3,23.1-6.5,7.5-18,8.2-25.5,1.6-7.4-6.6-8.1-18.1-1.6-25.4,6.4-7.1,17.8-8.2,24.7-2Z"/><path d="M28.5,26c.4.6,1,1.3.9,1.5-.3.5-.9.8-1.5,1-.9.3-1.8.5-2.8.8-1.5.4-1.9,0-1.5-1.5.3-1,.5-1.9.9-2.9.2-.5.5-1.2.9-1.4.4-.1.9.5,1.6.9,3.1-3.1,6.3-6.3,9.4-9.6.4-.4.2-1.5,0-2.2-.4-1.4-.2-2.4,1-3.3,1-.8,1.8-1.8,2.7-2.6.8-.8,1.6-.6,1.7.5.2,2.5,1.2,3.8,3.8,3.9,1.2,0,1.4.9.6,1.8-1.1,1.2-2.2,2.5-3.5,3.4-.7.5-1.9.4-2.8.2-1.2-.3-1.9,0-2.8.9-2.9,3-5.8,5.9-8.7,8.8Z"/><path d="M27.4,22.6c-.4,0-.8,0-1.1,0-1.4-.3-2.2,0-2.7,1.4-.4,1.3-.8,2.7-1.2,4.1-.4,1.7.8,2.9,2.5,2.5,1.4-.3,2.7-.7,4.1-1.2,1.4-.5,1.8-1.3,1.4-2.8,0-.3,0-.6,0-1.2,2,2.2,1.3,6.4-.9,8.6-2.7,2.6-7,2.8-9.9.4-2.8-2.4-3.4-6.6-1.3-9.7,2.1-3.1,6.1-4.1,9.2-2Z"/></svg>