<?xml version="1.0" encoding="UTF-8"?><svg id="Layer_1" xmlns="http://www.w3.org/2000/svg" width="53" height="53" viewBox="0 0 53 53"><path d="M26.4,47.2c-4.4,0-8.8,0-13.2,0-4.7,0-7.3-2.6-7.4-7.3,0-6.8,0-13.6,0-20.5,0-4,1.9-6.2,5.8-7.1.3,0,.8-.6.8-1,.1-1.1,0-2.1,0-3.2,0-1.4.9-2.3,2.1-2.3,1.2,0,2,.9,2.1,2.3,0,1.1,0,2.1,0,3.2,0,.7.3.9.9.9,5.9,0,11.9,0,17.8,0,.7,0,1-.2,1-1,0-1.1,0-2.1,0-3.2,0-1.3.8-2.2,2-2.2,1.2,0,2.1.8,2.1,2.2,0,1.1,0,2.1,0,3.2,0,.7.3.9.9,1.1,3.7.7,5.7,3,5.7,6.7,0,7.1,0,14.2,0,21.2,0,4.2-2.8,6.8-7,6.8-4.6,0-9.1,0-13.7,0ZM26.6,19.8c-3.8,0-7.7,0-11.5,0-1.6,0-2.5.8-2.5,2.1,0,1.3.9,2,2.4,2,7.7,0,15.3,0,23,0,1.5,0,2.4-.8,2.4-2,0-1.3-.9-2.1-2.5-2.1-3.8,0-7.6,0-11.4,0ZM27.8,30.4c0,2.3.2,2.6,2.5,2.6,2.2,0,2.6-.3,2.6-2.4,0-2.3-.3-2.6-2.5-2.6-2.4,0-2.6.2-2.6,2.5ZM22.7,27.9c-2.3,0-2.6.3-2.6,2.3,0,2.4.2,2.7,2.4,2.7,2.4,0,2.7-.2,2.7-2.4,0-2.4-.2-2.6-2.5-2.6ZM20.1,38.2c0,2.4.2,2.7,2.4,2.7,2.4,0,2.6-.2,2.6-2.3,0-2.4-.2-2.7-2.3-2.7-2.5,0-2.8.2-2.8,2.3ZM30.2,40.9c2.3,0,2.6-.3,2.6-2.4,0-2.4-.2-2.6-2.5-2.6-2.4,0-2.6.2-2.6,2.4,0,2.4.2,2.6,2.5,2.6ZM15,33c2.3,0,2.5-.2,2.5-2.4,0-2.4-.2-2.6-2.5-2.6-2.3,0-2.5.2-2.5,2.4,0,2.4.2,2.6,2.5,2.6ZM35.4,30.5c0,2.3.2,2.5,2.5,2.5,2.4,0,2.6-.2,2.6-2.5,0-2.3-.2-2.5-2.5-2.5-2.4,0-2.5.2-2.5,2.6ZM37.9,40.9c2.3,0,2.5-.2,2.5-2.4,0-2.3-.2-2.5-2.4-2.5-2.5,0-2.6.1-2.6,2.4,0,2.4.1,2.5,2.5,2.5ZM17.5,38.4c0-2.3-.2-2.5-2.4-2.5-2.4,0-2.6.2-2.6,2.5,0,2.3.2,2.5,2.4,2.5,2.4,0,2.6-.1,2.6-2.5Z"/></svg>