<?xml version="1.0" encoding="UTF-8"?><svg id="Layer_1" xmlns="http://www.w3.org/2000/svg" width="53" height="53" viewBox="0 0 53 53"><path d="M6.5,26.4c0-2.9,0-5.8,0-8.6,0-5.9,4.2-10.8,10.1-11.1,6.4-.3,12.8-.3,19.1,0,6.1.2,10.2,4.3,10.5,10.5.3,6.3.3,12.6,0,18.9-.3,5.9-4.3,10-10.2,10.3-6.4.3-12.8.3-19.2,0-6.3-.3-10.2-4.9-10.3-11.2,0-2.9,0-5.8,0-8.6h0ZM24.5,28.5c0,1.6,0,3,0,4.4,0,1.5.8,2.5,2,2.4,1.2,0,1.9-.9,1.9-2.4,0-1.4,0-2.9,0-4.4,1.7,0,3.3,0,4.8,0,1.1,0,1.9-.8,2-1.8,0-1-.7-1.9-1.7-2.1-.4,0-.9,0-1.4,0-1.2,0-2.4,0-3.6,0,0-.3-.1-.4-.1-.4,0-1.3,0-2.6,0-3.8,0-1.6-.8-2.6-2-2.5-1.2,0-1.9,1-1.9,2.5,0,1.4,0,2.8,0,4.3-1.6,0-3,0-4.5,0-1.4,0-2.4.8-2.4,2,0,1.2.9,2,2.3,2,1.4,0,2.9,0,4.5,0Z"/></svg>