<?xml version="1.0" encoding="UTF-8"?><svg id="Layer_1" xmlns="http://www.w3.org/2000/svg" width="53" height="53" viewBox="0 0 53 53"><path d="M26.5,48.1c-5.5,0-11.1,0-16.6,0-3.7,0-5.3-2.1-4.9-5.7,1.1-9.9,2.1-19.8,3-29.8.6-7.1,1.2-7.8,8.3-7.8,7.6,0,15.1,0,22.7,0,4,0,5.3,1.2,5.7,5.1,1.1,10.7,2.2,21.4,3.2,32,.4,4.6-1,6.1-5.5,6.1-5.3,0-10.6,0-15.9,0ZM31.7,25.2c-.7,2-2.9,3.4-4.9,3.6-2.1.1-5.2-1.2-5.6-3.2-.6-3.1,0-5.3,2.3-7.6,1.4-1.5,1-3.7-.5-5.1-1.4-1.4-3.8-1.6-5.4-.4-1.6,1.1-2.4,3.6-1.2,5,2,2.1,1.6,4.5,1.6,7,0,3.8,2.6,7,6.2,8,3.5,1,7.5-.3,9.3-3.5,1-1.8,1.2-4.1,1.5-6.2.2-1.7,0-3.3,1.4-4.8,1.5-1.5.9-3.9-.7-5.3-1.6-1.4-4-1.4-5.6,0-1.5,1.4-2.4,4.3-.6,5.4,2.9,1.7,2.9,5.1,2.2,7Z"/></svg>