<?xml version="1.0" encoding="UTF-8"?><svg id="Layer_1" xmlns="http://www.w3.org/2000/svg" width="53" height="53" viewBox="0 0 53 53"><path d="M33.4,35.2c.2-1,.3-1.8.5-2.8H8.2c-.9-6.7-1.8-13.3-2.7-20,.5,0,.8,0,1.2,0,9.8,0,19.6,0,29.5,0,.8,0,1.2-.2,1.3-1,.2-1.7,0-1.8,2.2-1.8,2.2,0,4.3,0,6.5,0,.2,0,.5,0,.7,0,.3.2.4.5.7.7-.2.2-.5.5-.7.5-.8,0-1.7,0-2.5,0-1.8,0-3.6,0-5.5,0-.5,3-1,5.9-1.5,8.8-.9,5.3-1.8,10.6-2.7,15.9-.1.6-.4.9-1.1.9-7.1,0-14.1,0-21.2,0-.5,0-1,0-.9-.7,0-.6.5-.6,1-.6,6.6,0,13.2,0,19.8,0,.4,0,.7,0,1.2,0Z"/><path d="M32.7,40.6c0,1.4-1.3,2.7-2.7,2.7-1.5,0-2.8-1.2-2.8-2.8,0-1.5,1.2-2.7,2.7-2.7,1.5,0,2.8,1.2,2.8,2.7Z"/><path d="M20.1,40.6c0,1.5-1.3,2.8-2.8,2.8-1.5,0-2.7-1.2-2.7-2.7,0-1.5,1.2-2.8,2.8-2.7,1.5,0,2.7,1.2,2.7,2.7Z"/></svg>