<?xml version="1.0" encoding="UTF-8"?><svg id="Layer_1" xmlns="http://www.w3.org/2000/svg" width="53" height="53" viewBox="0 0 53 53"><path d="M13.9,47.5v-8.2c-6.2-1.3-8.4-4.1-8.4-10.3,0-4.8,0-9.7,0-14.5,0-5.2,3.6-8.9,8.9-8.9,8.1,0,16.1,0,24.2,0,5.1,0,8.6,3.3,8.8,8.5.2,5.6.2,11.2,0,16.7-.2,5.2-3.6,8.2-8.9,8.3-4,0-8.2-.8-11.8.3-3.6,1.1-6.7,4.1-10,6.3-.8.5-1.6,1-2.8,1.9ZM26.3,20.1c4,0,8.1,0,12.1,0,1.3,0,2.4-.3,2.4-1.8,0-1.5-.9-2-2.3-2-8,0-16,0-23.9,0-1.3,0-2.4.4-2.4,1.9,0,1.6,1.1,2,2.5,2,3.9,0,7.8,0,11.6,0ZM26.4,28.4c2.6,0,5.3,0,7.9,0,1.4,0,2.6-.6,2.3-1.9-.2-.8-1.5-1.9-2.3-2-5.2-.2-10.4-.1-15.6,0-1.3,0-2.4.6-2.4,2.1,0,1.4,1,2,2.4,1.9,2.6,0,5.1,0,7.7,0Z"/></svg>