<?xml version="1.0" encoding="UTF-8"?><svg id="Layer_1" xmlns="http://www.w3.org/2000/svg" width="53" height="53" viewBox="0 0 53 53"><path d="M26.6,20.2c5.1-1,8,2.1,10.7,5.6,2.9,3.8,4.8,8,5.2,12.9.5,5.9-2.1,9.7-7.8,11.1-4.9,1.2-9.8,1.4-14.7.4-7.8-1.5-10.9-6-9.2-13.8,1.3-6.2,5.1-11,9.6-15.1,1.3-1.2,4.1-.7,6.2-1ZM19.7,40.4c1.3,1.4,2.5,2.6,3.7,3.8.7.7,1.4,1.5,2.1,2.1.4.3.9.6,1.4.7.4,0,1.1-.4,1.1-.7,0-1.6,1.2-1.6,2.2-2.1,2.1-.9,3.4-2.4,3.4-4.8,0-2.5-1.5-3.8-3.6-4.7-.7-.3-1.4-.4-2-.6v-4.4c1.9-.3,2.8,3.5,5.3.6-2.1-1.8-4.1-3.6-6.7-5.9-.2.2-.7.8-1.2,1.4-.4.4-.7.9-1.2,1.2-2.6,1.3-4.7,3-4.4,6.1.3,3.2,2.8,4,6,4.2,0,1.6-.2,3.1-.3,4.6-2.2-.3-2.6-3.6-5.7-1.7Z"/><path d="M11.5,6.1c4.6-2.1,7.8-1.6,10.4,2.1-.1-1-.3-2.1-.4-2.8,1.9-1.2,3.6-2.2,5.2-3.3,1.5,1,3.3,2.1,5.3,3.4,0,.5-.2,1.5-.4,2.6,2.7-3.7,6.1-4,8.9-2.8-2.7,3.1-5.6,6.5-8.6,9.9-.4.4-1.3.4-2,.6-5.6.9-10.2-.5-13.6-5.4-1.1-1.6-3-2.7-4.8-4.2Z"/><path d="M32.9,18.4h-12.3c0-.2,0-.4,0-.5h12.4c0,.2,0,.4,0,.5Z"/><path d="M25.4,29.3c.1,1.7.2,3.2.3,5.4-1.3-.6-2.8-.9-3.1-1.5-.8-2.1,1.1-2.8,2.8-3.9Z"/><path d="M28,42v-4.2c1.6-.3,2.8.3,2.9,1.8.1,1.8-1.2,2.5-2.9,2.4Z"/></svg>