<?xml version="1.0" encoding="UTF-8"?><svg id="Layer_1" xmlns="http://www.w3.org/2000/svg" width="53" height="53" viewBox="0 0 53 53"><path d="M28.7,48.8v-24.7c5.7,0,11.2,0,16.8,0,.4,0,1.1,1,1.1,1.6,0,6.3.1,12.6,0,18.9,0,2.2-1.4,4-3.5,4.1-4.8.2-9.5,0-14.4,0Z"/><path d="M24.4,48.8c-5,0-9.8.1-14.6,0-1.9,0-3.4-1.6-3.4-3.4-.2-7,0-13.9,0-21.2,5.8,0,11.3,0,16.9,0,.4,0,1.1.7,1.1,1.1,0,7.8,0,15.5,0,23.5Z"/><path d="M19.6,13c-2.6-3.3-2.6-6-.5-7.8,2.2-1.9,4.9-1.3,7.2,1.6,3.2-2.9,5.6-3.4,7.7-1.5,2.1,1.9,2,4.3-.6,7.7,3.2,0,6.2,0,9.1,0,5.1,0,6.5,1.5,6.2,6.7h-20.2v-6.3h-4.1v6.4H4.4c-.7-4.7,1-6.7,5.6-6.8,3.1,0,6.1,0,9.6,0ZM24.1,10.7c.2-2,.3-3.8-2-3.9-.7,0-2.1,1.5-2,2.1.3,2.2,2.1,2,4,1.8ZM29,10.7c2,.2,3.8.3,4-1.9,0-.6-1.5-2.1-2.2-2-2.3.2-1.9,2.1-1.8,3.9Z"/></svg>