<?xml version="1.0" encoding="UTF-8"?><svg id="Layer_1" xmlns="http://www.w3.org/2000/svg" width="53" height="53" viewBox="0 0 53 53"><path d="M26.5,5c11.8,0,21.7,9.6,21.5,21.9-.2,11.7-9.7,21.4-22,21.2-11.6-.2-21.4-9.7-21.1-22,.3-11.6,9.7-21,21.5-21ZM41.6,38.7c6.1-7.2,6-19-1.6-26.3-7.7-7.3-19.7-7.2-27.2.3-7.5,7.5-7.2,19.2-1.4,25.9,0,0,.1,0,.1-.2,0-.1.1-.3.2-.4,1.4-5,4.5-8.4,9.2-10.4.4-.2,1.1-.1,1.5,0,2.4,1,4.9,1.4,7.2.3,1.8-.9,3.2-.3,4.6.5,1,.6,2,1.4,3,2.2,2.3,2.1,3.7,4.8,4.5,8Z"/><path d="M26.5,11.2c4.4,0,7.7,3.3,7.7,7.7,0,4.3-3.4,7.6-7.7,7.6-4.3,0-7.7-3.4-7.7-7.7,0-4.3,3.3-7.6,7.7-7.6Z"/></svg>