<?xml version="1.0" encoding="UTF-8"?><svg id="Layer_1" xmlns="http://www.w3.org/2000/svg" width="53" height="53" viewBox="0 0 53 53"><path d="M4.9,20.9c-.9-.9-1.8-1.7-2.6-2.5,12.5-13.8,35.5-14.1,48.4,0-.9.8-1.7,1.7-2.6,2.5-5.9-6.1-13.1-9.2-21.6-9.2-8.4,0-15.6,3.2-21.5,9.2Z"/><path d="M10.2,26.1c-.9-.8-1.8-1.7-2.7-2.5,10.2-11.1,28.1-10.9,37.9,0-.9.8-1.8,1.6-2.7,2.5-4.5-4.6-9.9-7-16.3-7-6.4,0-11.8,2.5-16.3,7Z"/><path d="M40.2,28.9c-.9.8-1.8,1.6-2.7,2.5-3-3.2-6.7-4.9-11-4.9-4.3,0-8,1.7-11,4.9-.9-.8-1.8-1.6-2.7-2.4,6.4-7.7,19.8-8.6,27.4,0Z"/><path d="M20.8,36.6c-1-.8-1.9-1.6-2.8-2.3,4.2-5.2,12.6-5.4,17,0-.9.8-1.9,1.6-2.8,2.3-2.9-3.4-8.5-3.3-11.4,0Z"/><path d="M30.2,41.4c0,2-1.7,3.7-3.7,3.7-2,0-3.7-1.7-3.7-3.7,0-2,1.7-3.7,3.7-3.7,2,0,3.7,1.7,3.7,3.8Z"/></svg>