<?xml version="1.0" encoding="UTF-8"?><svg id="Layer_1" xmlns="http://www.w3.org/2000/svg" width="53" height="53" viewBox="0 0 53 53"><path d="M21.9,30.9c-3.8,0-7.4,0-11,0-1,0-2-.1-2.9-.4-1.5-.4-2.4-1.5-2.3-3.1,0-3.1,0-6.1,0-9.2,0-2.4,1.3-3.7,3.7-3.7,11.4,0,22.7,0,34.1,0,2.6,0,3.6,1,3.7,3.6.1,2.9.1,5.8,0,8.7-.1,2.8-1.3,3.9-4.2,4-3.4,0-6.8,0-10.2,0-.8,0-1.5.2-2.6.4,1.7,1.7,13.3,1.6,16.8,0,0,3.9.2,7.8,0,11.6-.1,2.3-2.2,2.7-4.1,2.7-8.4,0-16.7,0-25.1,0-2.4,0-4.8,0-7.2,0-3.4-.1-4.9-1.6-4.9-5.1,0-3,0-6.1,0-9.2,5.3,1.8,10.7,1,16,.7,0,0,.1-.7.2-1.3ZM22.8,31.5c-.2,0-.4.2-.5.3.6,1.2,1,3,1.9,3.5,3.8,1.7,6,0,5.6-4.3,0-.7-.1-1.4-.3-2.1-.2-.5-.5-1.1-.9-1.3-3.1-1.8-5.8-.2-5.9,3.3,0,.2,0,.4,0,.6Z"/><path d="M34.2,13.1h-2.2c-.7-3-.7-3-4-3-1.3,0-2.7,0-4,0-2,0-3.4.5-2.9,3.1h-2.3c-.9-4.3.2-5.8,4.6-5.9,2,0,4.1,0,6.1,0,4.4,0,5.3,1.3,4.6,5.8Z"/></svg>