<?xml version="1.0" encoding="UTF-8"?><svg id="Layer_1" xmlns="http://www.w3.org/2000/svg" width="53" height="53" viewBox="0 0 53 53"><path d="M11.4,23.6c0-1.9,0-3.8,0-5.7,0-1.7.8-2.7,2.5-2.7,3.2,0,6.4,0,9.7,0,1.6,0,2.5,1,2.5,2.6,0,3.9,0,7.9,0,11.8,0,1.7-.8,2.5-2.5,2.6-3.2,0-6.4,0-9.7,0-1.6,0-2.5-1-2.5-2.6,0-2,0-3.9,0-5.9Z"/><path d="M40.9,11v25.3c-.5-.4-.9-.6-1.3-.8-3.1-2.2-6.5-3.6-10.2-4.2-1-.2-1.4-.4-1.4-1.5,0-4.1,0-8.2,0-12.3,0-.5.5-1.3.9-1.3,4.2-.7,7.9-2.3,11.3-4.9.1,0,.3-.1.6-.2Z"/><path d="M14.3,34.1c3.2,0,6,0,8.9,0,.4,0,1,.6,1.1,1.1.8,2.1,1.4,4.2,2.2,6.3.4.9,1.1,1.7,1.5,2.6.3.5.5,1.3.3,1.8-.1.4-.8.9-1.3,1-2.9,0-5.8.1-8.7,0-1.4,0-1.9-1.1-1.4-2.5.2-.6.3-1.4,0-1.9-.8-2.7-1.8-5.5-2.7-8.4Z"/><path d="M46.5,23.8c0,4.9,0,9.8,0,14.7,0,.4,0,.8,0,1.1-.1,1.1-.8,1.9-1.8,1.6-.6-.1-1.5-1.1-1.5-1.7-.2-2.4,0-4.8,0-7.2,0-7.5,0-15,0-22.4,0-.8,0-1.5,0-2.3,0-1,.6-1.7,1.6-1.7,1.1,0,1.7.7,1.8,1.7,0,2,0,3.9,0,5.9,0,3.4,0,6.8,0,10.1Z"/><path d="M9.2,16.9v13.5c-1.8,0-2.6-.8-2.7-2.4,0-2.9,0-5.8,0-8.7,0-1.6.8-2.3,2.7-2.4Z"/></svg>