<?xml version="1.0" encoding="UTF-8"?><svg id="Layer_1" xmlns="http://www.w3.org/2000/svg" width="53" height="53" viewBox="0 0 53 53"><path d="M10.4,25.6c0-5.4,0-10.8,0-16.2,0-2.8.9-3.6,3.6-3.6,8.3,0,16.6,0,24.9,0,2.8,0,3.7,1,3.7,3.7,0,9.3,0,18.5,0,27.8,0,1.5-.4,1.9-1.9,1.9-8.3,0-16.6,0-24.9,0-1.7,0-3,.5-3.6,2.1-.8,2.3.7,4.3,3.3,4.4,5,0,9.9,0,14.9,0,3.6,0,7.1,0,10.7,0,.5,0,1,.5,1.4.8-.5.3-1,.8-1.5.8-8.5,0-17,0-25.4,0-3.5,0-5.3-1.9-5.3-5.5,0-5.4,0-10.8,0-16.2ZM27.7,13.8c2.8,0,5.6,0,8.4,0,.4,0,.9-.4,1.3-.7-.4-.3-.8-.8-1.3-.8-5.5,0-11,0-16.5,0-.4,0-.9.5-1.3.7.5.3.9.7,1.4.7,2.7,0,5.3,0,8,0ZM27.9,17.8c2.7,0,5.5,0,8.2,0,.4,0,.9-.4,1.3-.7-.4-.3-.8-.8-1.3-.8-5.5,0-11,0-16.5,0-.4,0-.9.5-1.3.7.5.2.9.7,1.4.7,2.7,0,5.5,0,8.2,0ZM27.8,21.8h0c2.1,0,4.1,0,6.2,0,.4,0,.7-.5,1.1-.7-.4-.2-.7-.7-1.1-.7-4.1,0-8.2,0-12.4,0-.4,0-.7.5-1.1.7.4.2.7.7,1.1.7,2.1,0,4.1,0,6.2,0Z"/><path d="M16.3,44.5c-.5,0-1,0-1.5-.1-.3,0-.6-.5-.6-.8,0-.2.4-.6.6-.6.4-.1.9,0,1.3,0,8.2,0,16.4,0,24.5,0,.3,0,.7,0,1,0,.3.2.6.5.9.8-.3.3-.5.7-.8.8-.8.1-21.4,0-25.4,0Z"/><path d="M28.5,40.1c4.2,0,8.4,0,12.5,0,.5,0,1,.5,1.5.8-.5.2-.9.7-1.4.7-8.5,0-16.9,0-25.4,0-.5,0-1-.5-1.5-.8.5-.2,1.1-.7,1.6-.7,4.2,0,8.5,0,12.7,0Z"/></svg>