<?xml version="1.0" encoding="UTF-8"?><svg id="Layer_1" xmlns="http://www.w3.org/2000/svg" width="53" height="53" viewBox="0 0 53 53"><path d="M7.1,40.5c-2.8-3.9-4.3-7.9-4.4-13,2.9,0,5.6,0,8.3,0,.4,0,.9.9,1,1.4.5,2.3.9,4.6,1.2,7,0,.6-.4,1.5-.8,1.8-1.6,1-3.3,1.8-5.2,2.8Z"/><path d="M50.5,27.5c0,5-1.6,9.1-4.4,13-1.9-1-3.8-1.8-5.5-2.8-.4-.3-.7-1.2-.6-1.8.3-2.3.8-4.6,1.3-6.9.1-.5.8-1.3,1.2-1.4,2.6-.1,5.2,0,8,0Z"/><path d="M46,12.4c2.8,3.8,4.3,8,4.4,12.8h-9c-.6-2.9-1.2-5.6-1.7-8.4,0-.5.3-1.4.7-1.6,1.7-1,3.6-1.9,5.5-2.8Z"/><path d="M7.1,25.5c-5,0-5.3-.3-3.8-5,.7-2.3,1.9-4.5,2.9-6.7.5-1,1.3-1.5,2.3-.7,0,0,.1,0,.2.1q4.7,2.5,3.8,7.6c0,0,0,.2,0,.2q-.8,4.4-5.3,4.4Z"/><path d="M15.3,36.4c-.5-2.6-1-4.9-1.2-7.2,0-.5.8-1.6,1.3-1.7,2.8-.2,5.7-.2,8.5,0,.5,0,1,.9,1.5,1.4,0,0,0,.2,0,.2.6,5.2.5,5.3-4.7,6.2-1.7.3-3.3.7-5.5,1.1Z"/><path d="M15.4,16.6c3.3.5,6.2.9,9,1.4.4,0,1,.7,1,1.1.1,1.7.2,3.4,0,5.1,0,.5-1,1.1-1.6,1.2-2.7.1-5.4.1-8,0-.6,0-1.6-1-1.6-1.4.3-2.5.8-4.9,1.2-7.3Z"/><path d="M33.4,27.4c.9,0,1.8,0,2.7,0,3.1,0,3.2.2,2.8,3.2q-.7,5.7-6.3,4.7c0,0-.2,0-.2,0-5.1-.8-5-.8-4.8-5.8,0-1.5.5-2.1,2-2,1.3,0,2.6,0,3.9,0Z"/><path d="M33.3,25.5c-.2,0-.3,0-.5,0-6-.2-5.1,1.2-5.2-5.5,0-1.3.4-1.9,1.8-2,2.2-.2,4.3-.6,6.4-1.1,1.4-.3,2,0,2.2,1.4.3,1.7.7,3.3,1,5,.3,1.6-.2,2.5-2,2.3-1.2,0-2.4,0-3.6,0Z"/><path d="M25.4,36.8v14c-4.4-3.3-6.9-7.4-9.2-12.4,3.2-.6,6.1-1.1,9.2-1.6Z"/><path d="M25.5,2.2c0,4.6,0,8.7,0,12.7,0,.3-.9,1-1.3.9-2.5-.3-4.9-.7-7.8-1.2,2.1-5,4.8-8.8,9.1-12.4Z"/><path d="M27.7,50.8v-14c3.1.5,5.9,1,9.1,1.5-2.1,5.1-4.7,9-9.1,12.5Z"/><path d="M36.6,14.1c-.5.3-.6.5-.7.5-7.6,2.6-8.3,2.2-8.3-5.6,0-2,0-4,0-6.7,4.4,3.4,7,7.3,9,11.8Z"/><path d="M20.6,3.3c-2,3.3-3.8,6.4-5.7,9.4-.2.4-1.2.7-1.6.5-1.5-.7-3-1.5-4.8-2.5,3.4-3.9,7.2-6.3,12.1-7.4Z"/><path d="M44.3,10.7c-.2.2-.4.5-.7.6-4.2,2.8-4.3,2.8-6.9-1.5-1.2-2.1-2.7-4-4.1-6,3-.5,9.4,3.3,11.7,6.9Z"/><path d="M44.7,42.2c-3.4,3.8-7.1,6.1-11.8,7.3,2-3.4,3.7-6.4,5.6-9.4.2-.3,1-.6,1.4-.4,1.5.7,3,1.5,4.8,2.5Z"/><path d="M8.5,42.2c2-1.1,3.8-2,5.5-2.9,2.2,3.5,4.1,6.7,6.4,10.3-4.9-1.2-8.5-3.6-11.9-7.4Z"/></svg>