<?xml version="1.0" encoding="UTF-8"?><svg id="Layer_1" xmlns="http://www.w3.org/2000/svg" width="53" height="53" viewBox="0 0 53 53"><path d="M44.3,26.5c-.7,2.1,0,3.4,2.1,4.5.6.3.9,2.2.5,3.1-.9,2.1-2.2,4.1-3.4,6.1-.9,1.6-2.3,2-3.8.9-1.3-1-2.4-.8-3.6.2-.4.4-1,.7-1.6.9-1.4.5-2,1.3-1.9,2.8.2,2.1-.9,3.1-3,3-2.1,0-4.2,0-6.4,0-1.8,0-3-.8-2.8-2.7.2-1.7-.5-2.7-2-3.2-.7-.2-1.4-.6-1.9-1.1-1-.9-1.8-.8-2.8-.1-2.4,1.4-3.1,1.1-4.5-1.3-1-1.7-1.9-3.4-2.9-5.1-1-1.7-.8-3.1,1-3.9,1.6-.7,2.1-1.7,1.6-3.4-.1-.5-.1-1.1,0-1.6.5-1.6,0-2.5-1.5-3.2-1.8-.8-2.2-2.2-1.1-3.9,1.1-1.9,2.2-3.8,3.3-5.7.9-1.7,2.3-2,3.8-1,1.4,1,2.5.9,3.8-.3.5-.5,1.3-.9,2-1.1,1.3-.4,1.5-1.2,1.5-2.4,0-2.7.4-3.1,3.2-3.1,2,0,4.1,0,6.1,0,1.9,0,3,.8,2.8,2.7-.2,1.9.7,2.8,2.3,3.3,1.4.4,2,2.4,3.9,1.4,3.2-1.6,3.6-1.4,5.3,1.6.9,1.6,1.8,3.1,2.7,4.7.8,1.4.8,2.8-.7,3.5-2.2.9-2.4,2.4-1.9,4.4ZM26.4,16.7c-5.4,0-9.7,4.4-9.6,9.9,0,5.3,4.5,9.7,9.7,9.7,5.2,0,9.9-4.7,9.9-9.9,0-5.3-4.5-9.7-9.9-9.7Z"/></svg>