<?xml version="1.0" encoding="UTF-8"?><svg id="Layer_1" xmlns="http://www.w3.org/2000/svg" width="53" height="53" viewBox="0 0 53 53"><path d="M32.1,28.9c1.1.6,2.1,1.1,3.2,1.7.6.3,1.3.6,1.8,1.1,2.9,2.8,5.7,5.6,8.5,8.4,1.6,1.6,1.6,3.1,0,4.7-.3.3-.6.6-1,.9-1.6,1.5-3,1.5-4.6,0-2.9-2.8-5.8-5.7-8.5-8.6-.5-.6-.9-1.4-1.1-2.2-.5-1.9-1.8-2.6-3.6-1.8-5.3,2.7-11.8,1.7-16.1-2.3-4.5-4.2-5.8-10.5-3.4-16,2.4-5.5,8-9,14-8.6,10.2.7,16.3,11.6,11.7,20.8-.2.4-.5.9-1,1.8ZM29.8,20.4c0-5.1-4.2-9.4-9.2-9.4-5.2,0-9.5,4.3-9.5,9.4,0,5,4.3,9.3,9.4,9.3,5.3,0,9.4-4.1,9.4-9.4Z"/></svg>