<?xml version="1.0" encoding="UTF-8"?><svg id="Layer_1" xmlns="http://www.w3.org/2000/svg" width="53" height="53" viewBox="0 0 53 53"><path d="M48.5,37.4c.7,4.8-1.1,6.9-5.4,6.9-11.1,0-22.2,0-33.2,0-4.1,0-5.7-1.6-5.7-5.7,0-8.1,0-16.2,0-24.3,0-4,1.6-5.6,5.7-5.6,11,0,22,0,33,0,4.6,0,6.2,1.8,5.7,6.7-.7,0-1.4.1-2.2.1-3.4,0-6.9,0-10.3,0-6.9.1-11.8,4.7-11.7,11,0,6.3,5,10.9,11.9,10.9,4,0,8.1,0,12.3,0Z"/><path d="M47.1,19.8c.9,0,1.7.8,1.7,1.7,0,3.6,0,7.1,0,10.6,0,.4-.9,1.1-1.3,1.1-4.3,0-8.6.2-12.9,0-4.6-.2-7.9-6.1-4.6-10.5s3.4-2.7,5.6-2.9c3.8-.2,7.6,0,11.6,0Z"/></svg>