<?xml version="1.0" encoding="UTF-8"?><svg id="Layer_1" xmlns="http://www.w3.org/2000/svg" width="53" height="53" viewBox="0 0 53 53"><path d="M43,27.7c-.1,0-.2.2-.3.2-2.1.6-4.1,1.3-6,2.3-3.4,1.8-5.7,4.6-7.1,8.1-.8,1.9-1.4,4-1.8,6-.3,1.4-.6,2.8-.9,4.2,0,.2-.1.4-.3.4-.2,0-.3-.2-.3-.4-.5-2.3-.9-4.6-1.6-6.8-.6-2.1-1.3-4.1-2.5-5.9-1.5-2.5-3.6-4.3-6.1-5.6-1.8-1-3.7-1.6-5.7-2.2-.1,0-.2-.2-.4-.2,0,0,0-.2,0-.2.1,0,.2-.2.4-.2,2.2-.6,4.3-1.3,6.2-2.5,3.2-1.8,5.4-4.5,6.8-7.9.8-1.9,1.4-4,1.8-6,.3-1.4.6-2.8.9-4.2,0-.2.1-.4.3-.4.2,0,.3.2.3.4.5,2.6,1,5.1,1.8,7.6.6,2.1,1.5,4.1,2.7,5.9,1.5,2.2,3.6,3.9,6,5.1,1.7.8,3.5,1.4,5.3,1.9.1,0,.3.2.4.2v.2Z"/><path d="M23.2,3.8c0,0,.1,0,.2,0,.6.2,1,.8.9,1.4-.1.7-.7,1.1-1.3,1.1-.7,0-1.2-.5-1.3-1.2,0-.6.3-1.2.9-1.4,0,0,0,0,.1,0,.2,0,.3,0,.5,0Z"/><path d="M20.5,7.1c0,.3.2.6.2.9.2.8.6,1.3,1.4,1.6.2,0,.4.1.6.2,0,0-.1.1-.2.1-.2,0-.3.1-.5.2-.7.2-1.1.8-1.3,1.5,0,.3-.1.5-.2.8,0,0,0,0-.1.1,0-.3-.1-.5-.2-.8,0-.3-.2-.6-.3-.9-.2-.4-.5-.6-.9-.7-.2,0-.5-.2-.8-.3,0,0,.1-.1.2-.1.2,0,.3-.1.5-.2.7-.2,1.1-.7,1.3-1.4,0-.3.2-.6.2-1,0,0,0,0,0,0Z"/><path d="M19.2,6.8c0,.5-.4.9-.9.9-.5,0-.9-.4-.9-.9,0-.5.4-.9.9-.9.5,0,.9.4.9.9Z"/><path d="M22.1,12.1c0-.4.3-.7.6-.7.4,0,.6.3.7.6,0,.4-.3.7-.7.7-.3,0-.6-.3-.6-.6Z"/><path d="M33.4,49.2c0,0,0-.2-.1-.3-.2-.6-.4-1.2-.5-1.9,0-.2-.1-.2-.3-.3-.6-.2-1.2-.4-1.7-.6,0,0-.1,0-.3-.1.1,0,.2-.1.3-.1.6-.2,1.1-.4,1.7-.6.2,0,.3-.2.3-.4.2-.6.4-1.3.5-1.9,0,0,0-.1.1-.2,0,0,0,.2,0,.2.2.6.4,1.3.5,1.9,0,.2.1.3.3.3.6.2,1.1.4,1.7.6,0,0,.2,0,.2.1,0,0-.1.1-.2.1-.6.2-1.1.4-1.7.6-.2,0-.3.1-.3.3-.2.6-.4,1.3-.5,1.9,0,0,0,.2,0,.2,0,0,0,0,0,0Z"/><path d="M29.5,43c.5,0,1,.4.9,1,0,.5-.4.9-1,.9-.5,0-1-.4-1-1,0-.5.4-1,1-.9Z"/><path d="M34,40.6c0,.4-.3.7-.7.6-.3,0-.6-.3-.6-.7,0-.4.3-.6.7-.6.4,0,.6.3.6.7Z"/></svg>