<svg width="50" height="50" viewBox="0 0 50 50" fill="none" xmlns="http://www.w3.org/2000/svg">
<path d="M40.7977 8C41.2252 8.16712 41.6714 8.27854 42.0803 8.4828C43.8462 9.33697 44.6641 10.8225 44.7013 12.7351C44.7384 14.7406 44.7013 16.7646 44.7013 18.7701C44.7013 19.03 44.6641 19.3643 44.5154 19.55C43.7347 20.5341 42.8982 21.4812 41.9502 22.5767C41.9316 22.1125 41.8944 21.8154 41.8944 21.5369C41.8944 18.8072 41.8944 16.0961 41.8944 13.3665C41.8944 11.8809 41.2996 11.2496 39.8311 11.2496C28.6409 11.2496 17.4693 11.2496 6.2791 11.2496C4.82921 11.2496 4.21579 11.8995 4.21579 13.385C4.21579 21.1469 4.21579 28.9274 4.21579 36.6892C4.21579 38.2119 4.84779 38.8247 6.35345 38.8247C14.1234 38.8247 21.9119 38.8247 29.6819 38.8247H30.8343C30.7042 39.9017 30.5741 40.9044 30.4254 42H29.2915C21.7075 42 14.1048 42 6.52075 42C3.30496 42 2.15248 41.2387 1 38.2862V11.8995C1.4833 9.76406 2.85884 8.5385 4.92215 8C16.8745 8 28.8454 8 40.7977 8Z" fill="black"/>
<path d="M13.3984 30.3573C14.365 30.3573 15.2945 30.3945 16.2239 30.3388C16.4469 30.3388 16.7629 30.0231 16.8559 29.8003C17.6738 27.7762 18.4545 25.7522 19.2538 23.7282C19.3095 23.5796 19.3839 23.4311 19.4954 23.1711C20.7037 25.0466 21.8376 26.8478 23.0644 28.7604C24.8117 25.7336 26.5218 22.8183 28.2877 19.7729C28.548 20.4229 28.771 20.9428 28.9755 21.4627C29.8492 23.6353 30.7228 25.8079 31.5593 27.9991C31.6708 28.3147 31.6708 28.8347 31.4849 29.0761C30.4254 30.4873 29.1614 31.75 28.4736 33.4398C28.3993 33.6255 27.8974 33.7369 27.5814 33.7369C21.3543 33.7369 15.1272 33.7369 8.88147 33.7369C8.60264 33.7369 8.3424 33.7369 8.00781 33.7369V32.1028C8.04499 32.0843 8.10075 32.0285 8.13793 32.0285C9.81089 32.2885 10.5544 31.4158 10.9634 29.9117C11.2422 28.8532 11.7813 27.8505 12.2831 26.6435C12.6735 27.9991 13.0267 29.1689 13.3799 30.3759L13.3984 30.3573Z" fill="black"/>
<path d="M13.7195 23.1151C12.1023 23.1337 10.7453 21.8339 10.7268 20.2369C10.7082 18.64 12.0465 17.2844 13.6637 17.2844C15.2995 17.2844 16.6193 18.5657 16.6564 20.1812C16.6936 21.7781 15.3738 23.1151 13.7381 23.1337L13.7195 23.1151Z" fill="black"/>
<path d="M35.8154 36.0578C36.3359 36.9491 37.1724 37.0791 38.1018 37.0791C40.2209 37.0606 42.3585 37.0791 44.552 37.0791C44.552 36.6149 44.552 36.1692 44.552 35.7236C44.552 35.575 44.5334 35.4265 44.552 35.2779C44.5891 35.1294 44.6449 34.9251 44.775 34.8508C44.868 34.7951 45.091 34.8508 45.2026 34.9437C46.0019 35.4822 46.8012 36.0578 47.5819 36.6149C48.1581 37.0234 48.7344 37.4319 49.3106 37.8405C49.6824 38.1004 49.6824 38.3233 49.3106 38.5832C47.9536 39.5488 46.5781 40.5144 45.2026 41.4614C45.0724 41.5543 44.8494 41.61 44.7379 41.5357C44.6263 41.48 44.552 41.2572 44.552 41.1086C44.5334 40.533 44.552 39.9759 44.552 39.3446C44.3847 39.3446 44.236 39.3446 44.1058 39.3446C41.9496 39.3446 39.7933 39.3446 37.6371 39.3446C35.9455 39.3446 34.9232 37.6733 35.7039 36.225C35.7225 36.1878 35.7597 36.1507 35.8154 36.0578Z" fill="black"/>
<path d="M38.068 29.0945C39.2204 29.0945 40.2986 29.0945 41.3953 29.0945C42.5849 29.0945 43.756 29.0945 44.9457 29.0945C46.1167 29.0945 46.9346 29.763 47.1577 30.8771C47.2692 31.3971 47.1205 31.8799 46.8231 32.3627C46.7301 32.2513 46.6558 32.1584 46.5628 32.0656C46.2097 31.657 45.7635 31.3785 45.2245 31.3785C42.9009 31.3785 40.5774 31.3785 38.2353 31.3785C38.1981 31.3785 38.1609 31.3785 38.068 31.3971C38.068 31.9356 38.068 32.4741 38.068 33.0126C38.068 33.1983 37.9936 33.4954 37.8635 33.5511C37.7334 33.6254 37.4731 33.4954 37.3058 33.384C35.9675 32.4555 34.6477 31.5271 33.3279 30.58C32.9376 30.3015 32.9376 30.0972 33.3279 29.8187C34.6849 28.8531 36.0418 27.9061 37.3988 26.9591C37.5289 26.8662 37.752 26.8105 37.8449 26.8662C37.9564 26.9219 38.0308 27.1448 38.0494 27.2933C38.068 27.869 38.0494 28.426 38.0494 29.0574L38.068 29.0945Z" fill="black"/>
</svg>
