<svg width="42" height="42" viewBox="0 0 42 42" fill="none" xmlns="http://www.w3.org/2000/svg">
<path d="M28.8732 2.62484C28.5251 2.62484 28.1913 2.48656 27.9452 2.24044C27.6991 1.99431 27.5608 1.66049 27.5608 1.31242C27.5608 0.964343 27.6991 0.630524 27.9452 0.384398C28.1913 0.138272 28.5251 0 28.8732 0L36.5403 0C39.5563 0 41.9974 2.4411 41.9974 5.45703V13.1242C41.9974 13.2965 41.9634 13.4672 41.8975 13.6264C41.8315 13.7857 41.7348 13.9303 41.613 14.0522C41.4911 14.1741 41.3464 14.2707 41.1872 14.3367C41.028 14.4027 40.8573 14.4366 40.685 14.4366C40.5126 14.4366 40.3419 14.4027 40.1827 14.3367C40.0235 14.2707 39.8788 14.1741 39.7569 14.0522C39.6351 13.9303 39.5384 13.7857 39.4724 13.6264C39.4065 13.4672 39.3725 13.2965 39.3725 13.1242V5.45703C39.3725 3.89263 38.1047 2.62484 36.5403 2.62484H28.8732ZM39.3725 28.2511C39.3725 28.0788 39.4065 27.9081 39.4724 27.7489C39.5384 27.5896 39.6351 27.445 39.7569 27.3231C39.8788 27.2012 40.0235 27.1045 40.1827 27.0386C40.3419 26.9726 40.5126 26.9387 40.685 26.9387C40.8573 26.9387 41.028 26.9726 41.1872 27.0386C41.3464 27.1045 41.4911 27.2012 41.613 27.3231C41.7348 27.445 41.8315 27.5896 41.8975 27.7489C41.9634 27.9081 41.9974 28.0788 41.9974 28.2511V36.5403C41.9974 39.5563 39.5563 41.9974 36.5403 41.9974H31.3589C31.1866 41.9974 31.0159 41.9634 30.8567 41.8975C30.6974 41.8315 30.5528 41.7348 30.4309 41.613C30.309 41.4911 30.2124 41.3464 30.1464 41.1872C30.0804 41.028 30.0465 40.8573 30.0465 40.685C30.0465 40.5126 30.0804 40.3419 30.1464 40.1827C30.2124 40.0235 30.309 39.8788 30.4309 39.7569C30.5528 39.6351 30.6974 39.5384 30.8567 39.4724C31.0159 39.4065 31.1866 39.3725 31.3589 39.3725H36.5403C38.1047 39.3725 39.3725 38.1047 39.3725 36.5403V28.2511ZM13.7463 39.3725C13.9186 39.3725 14.0893 39.4065 14.2485 39.4724C14.4077 39.5384 14.5524 39.6351 14.6743 39.7569C14.7962 39.8788 14.8928 40.0235 14.9588 40.1827C15.0247 40.3419 15.0587 40.5126 15.0587 40.685C15.0587 40.8573 15.0247 41.028 14.9588 41.1872C14.8928 41.3464 14.7962 41.4911 14.6743 41.613C14.5524 41.7348 14.4077 41.8315 14.2485 41.8975C14.0893 41.9634 13.9186 41.9974 13.7463 41.9974H5.45703C4.00974 41.9974 2.62172 41.4224 1.59833 40.399C0.574936 39.3757 0 37.9876 0 36.5403L0 28.8732C0 28.5251 0.138272 28.1913 0.384398 27.9452C0.630524 27.6991 0.964343 27.5608 1.31242 27.5608C1.66049 27.5608 1.99431 27.6991 2.24044 27.9452C2.48656 28.1913 2.62484 28.5251 2.62484 28.8732V36.5403C2.62484 38.1047 3.89263 39.3725 5.45703 39.3725H13.7463ZM2.62484 13.1242C2.62484 13.4723 2.48656 13.8061 2.24044 14.0522C1.99431 14.2983 1.66049 14.4366 1.31242 14.4366C0.964343 14.4366 0.630524 14.2983 0.384398 14.0522C0.138272 13.8061 0 13.4723 0 13.1242V5.45703C0 2.4411 2.4411 0 5.45703 0H13.1242C13.4723 0 13.8061 0.138272 14.0522 0.384398C14.2983 0.630524 14.4366 0.964343 14.4366 1.31242C14.4366 1.66049 14.2983 1.99431 14.0522 2.24044C13.8061 2.48656 13.4723 2.62484 13.1242 2.62484H5.45703C3.89263 2.62484 2.62484 3.89263 2.62484 5.45703V13.1242ZM20.9987 27.5608C25.495 27.5608 29.679 25.2273 33.6451 20.3425C29.679 15.4577 25.495 13.1242 20.9987 13.1242C16.5023 13.1242 12.3184 15.4577 8.35223 20.3425C12.3184 25.2273 16.5023 27.5608 20.9987 27.5608ZM20.9987 30.1856C15.6414 30.1856 10.7461 27.4558 6.31536 21.9961C5.93599 21.5285 5.72895 20.9446 5.72895 20.3425C5.72895 19.7403 5.93599 19.1565 6.31536 18.6888C10.7461 13.2292 15.6414 10.4993 20.9987 10.4993C26.356 10.4993 31.2513 13.2292 35.682 18.6888C36.0614 19.1565 36.2684 19.7403 36.2684 20.3425C36.2684 20.9446 36.0614 21.5285 35.682 21.9961C31.2513 27.4558 26.356 30.1856 20.9987 30.1856Z" fill="black"/>
<path d="M20.9064 24.1869C21.7766 24.1869 22.6111 23.8412 23.2264 23.2259C23.8417 22.6106 24.1874 21.7761 24.1874 20.9059C24.1874 20.0357 23.8417 19.2011 23.2264 18.5858C22.6111 17.9705 21.7766 17.6248 20.9064 17.6248C20.0362 17.6248 19.2016 17.9705 18.5863 18.5858C17.971 19.2011 17.6253 20.0357 17.6253 20.9059C17.6253 21.7761 17.971 22.6106 18.5863 23.2259C19.2016 23.8412 20.0362 24.1869 20.9064 24.1869ZM20.9064 26.8118C20.1308 26.8118 19.3627 26.6591 18.6461 26.3623C17.9295 26.0656 17.2784 25.6306 16.73 25.0821C16.1815 24.5337 15.7464 23.8826 15.4496 23.1661C15.1528 22.4495 15 21.6815 15 20.9059C15 20.1303 15.1528 19.3623 15.4496 18.6457C15.7464 17.9291 16.1815 17.278 16.73 16.7296C17.2784 16.1812 17.9295 15.7462 18.6461 15.4494C19.3627 15.1526 20.1308 14.9999 20.9064 15C22.4726 15.0001 23.9747 15.6224 25.0821 16.73C26.1896 17.8375 26.8118 19.3396 26.8118 20.9059C26.8118 22.4721 26.1896 23.9742 25.0821 25.0818C23.9747 26.1894 22.4726 26.8116 20.9064 26.8118Z" fill="black"/>
</svg>
