<svg width="50" height="49" viewBox="0 0 50 49" fill="none" xmlns="http://www.w3.org/2000/svg">
<path d="M48.1314 1.91158C48.3043 1.88825 48.4801 1.922 48.632 2.00769C48.7678 2.07144 48.883 2.17206 48.9644 2.29809C49.0459 2.42412 49.0903 2.57049 49.0925 2.72051L49.2087 18.5587C49.2113 18.6979 49.1776 18.8354 49.1109 18.9576C49.0442 19.0797 48.9467 19.1824 48.8282 19.2555L42.3768 23.1039C42.2424 23.2033 42.0795 23.2567 41.9123 23.2561H41.7841L25.0249 21.3819C24.8258 21.368 24.639 21.2802 24.5012 21.1358C24.3634 20.9913 24.2845 20.8006 24.28 20.601V4.49455C24.28 4.34092 24.3242 4.19053 24.4072 4.0613C24.4903 3.93207 24.6088 3.82947 24.7486 3.76571L33.1582 0.0614568C33.2847 0.00882447 33.4226 -0.0104789 33.5587 0.00539237L48.1034 1.91158H48.1314ZM16.4951 28.1177L11.9098 30.7287L17.4842 31.4375L21.6771 28.7985L16.5071 28.1177H16.4951ZM10.5643 32.1223L10.332 38.8941L7.82114 37.1841L5.30625 38.6057L5.81884 31.5136L1.56596 30.977V45.5016L16.8475 47.1996V32.9272L10.5763 32.1263L10.5643 32.1223ZM7.06027 30.12L11.5334 27.4689L9.31886 27.1766L3.64034 29.6715L7.07228 30.112L7.06027 30.12ZM18.4213 32.6989V46.715L23.375 43.7596L23.2629 29.6314L18.4213 32.6989ZM18.105 48.7173C17.9623 48.8136 17.7923 48.8614 17.6204 48.8535C17.5778 48.8575 17.5349 48.8575 17.4922 48.8535L0.745014 46.9833C0.54246 46.9691 0.352866 46.8785 0.214585 46.7298C0.0763043 46.5811 -0.000339507 46.3855 0.000158538 46.1824V30.0919C-0.00295819 29.9377 0.0399412 29.7859 0.123387 29.6561C0.206833 29.5263 0.327045 29.4243 0.468697 29.3631L8.87836 25.6589C9.00485 25.6062 9.14273 25.5869 9.27882 25.6028L23.8475 27.509C23.9636 27.498 24.0806 27.5099 24.1919 27.5443C24.3033 27.5786 24.4068 27.6346 24.4965 27.709C24.5861 27.7834 24.6602 27.8748 24.7145 27.9779C24.7687 28.081 24.8021 28.1939 24.8127 28.3099L24.9248 44.1481C24.9315 44.2881 24.9 44.4272 24.8337 44.5506C24.7673 44.6741 24.6687 44.7772 24.5484 44.8489L18.0969 48.6973L18.105 48.7173ZM29.7543 43.9439L32.2812 31.0971L34.8402 34.9615C40.3585 32.743 43.4581 29.0908 43.9186 23.4683C48.4518 31.3934 45.7006 38.5016 39.954 42.6624L42.569 46.6029L29.7543 43.9439ZM20.3075 4.17818L17.7806 17.0209L15.2176 13.1605C9.6993 15.375 6.59974 19.0272 6.13921 24.6537C1.602 16.7246 4.35716 9.60842 10.1038 5.45966L7.48876 1.51913L20.3035 4.17818H20.3075ZM40.787 2.52028L36.1937 5.13128L41.7681 5.84009L45.9569 3.20106L40.787 2.52028ZM34.8602 6.52488L34.6279 13.3007L32.113 11.6107L29.6022 13.0123L30.1147 5.92419L25.8458 5.37956V19.9042L41.1274 21.6222V7.3298L34.8602 6.52888V6.52488ZM31.3562 4.52258L35.8133 1.87954L33.6028 1.59922L27.9242 4.07407L31.3562 4.51057V4.52258ZM42.6932 7.11356V21.1297L47.6549 18.1462L47.5548 4.04203L42.7012 7.10154L42.6932 7.11356Z" fill="black"/>
</svg>
