<svg width="46" height="50" viewBox="0 0 46 50" fill="none" xmlns="http://www.w3.org/2000/svg">
<path d="M22.9997 42.8567C23.6685 42.8567 24.2103 42.3238 24.2103 41.6668V16.6665C24.2103 16.0088 23.6685 15.476 22.9997 15.476C22.3315 15.476 21.7897 16.0088 21.7897 16.6665V41.6668C21.7897 42.3238 22.3315 42.8567 22.9997 42.8567ZM16.9472 42.8567C17.6161 42.8567 18.1579 42.3238 18.1579 41.6668L16.9472 16.6665C16.9472 16.0088 16.4054 15.476 15.7366 15.476C15.0685 15.476 14.526 16.0088 14.526 16.6665L15.7366 41.6668C15.7366 42.3238 16.2785 42.8567 16.9472 42.8567ZM44.7894 8.33327H33.8945V4.76162C33.8945 2.13194 31.7267 0 29.0521 0H16.9472C14.2733 0 12.1048 2.13188 12.1048 4.76162V8.33327H1.20997C0.541805 8.33327 0 8.86609 0 9.52387C0 10.181 0.541806 10.7144 1.20997 10.7144H6.28677L9.68423 45.2378C9.68423 47.8681 11.852 50 14.526 50H31.4733C34.1479 50 36.3158 47.8681 36.3158 45.2378L39.7127 10.7144H44.7894C45.4581 10.7144 46 10.181 46 9.52387C45.9999 8.86609 45.4581 8.33327 44.7894 8.33327ZM14.5261 4.76168C14.5261 3.44681 15.6103 2.38121 16.9473 2.38121H29.0521C30.3897 2.38121 31.4733 3.44681 31.4733 4.76168V8.33332H14.5261V4.76168ZM33.8945 45.2378C33.8945 46.5527 32.8109 47.6189 31.4733 47.6189H14.526C13.1891 47.6189 12.1048 46.5527 12.1048 45.2378L8.70787 10.7144H37.292L33.8945 45.2378ZM29.0521 42.8567C29.7209 42.8567 30.2634 42.3238 30.2634 41.6668L31.4733 16.6665C31.4733 16.0088 30.9322 15.476 30.2634 15.476C29.5945 15.476 29.0521 16.0088 29.0521 16.6665L27.8421 41.6668C27.8421 42.3238 28.384 42.8567 29.0521 42.8567Z" fill="black"/>
</svg>
