<svg width="50" height="50" viewBox="0 0 50 50" fill="none" xmlns="http://www.w3.org/2000/svg">
<path d="M0.0297231 24.9699C0.267507 16.4374 3.81941 9.65477 10.7597 4.65097C14.5197 1.93215 18.7998 0.457039 23.4812 0.095493C29.6339 -0.39621 35.2664 1.00659 40.349 4.40512C40.9732 4.82452 41.3002 4.75221 41.7163 4.1882C42.177 3.53741 42.7417 2.94448 43.247 2.32262C43.678 1.78753 44.2279 1.59952 44.8967 1.72968C45.5357 1.84538 45.8181 2.29369 45.9964 2.85771C47.0219 6.12608 48.077 9.38 49.1173 12.6484C49.6821 14.4127 48.835 15.5263 46.9327 15.3817C43.7969 15.1503 40.676 14.8321 37.5551 14.5429C37.0201 14.4995 36.4702 14.4706 35.9352 14.3549C34.8354 14.109 34.4342 12.981 35.1029 12.0988C35.4447 11.6505 35.8014 11.2311 36.173 10.8117C36.4999 10.4502 36.4553 10.2043 36.0392 9.94401C33.7357 8.45444 31.2241 7.47103 28.4747 7.12395C22.753 6.40086 17.6704 7.7892 13.3456 11.5493C9.77888 14.6441 7.75772 18.5633 7.26729 23.1911C6.76199 27.9924 8.06981 32.3165 11.1164 36.1055C14.0887 39.8222 17.9824 42.1072 22.7827 42.7869C29.4555 43.7413 35.0881 41.7167 39.6506 36.9298C41.1367 35.3679 42.2365 33.5313 43.039 31.5355C44.0644 28.9758 47.3191 28.3684 49.1322 30.4075C50.1279 31.5355 50.2171 32.8516 49.6524 34.1387C46.3977 41.789 40.676 46.8796 32.4724 49.0922C21.7127 52.0135 10.3288 47.7183 4.19095 38.5929C1.99144 35.3245 0.668769 31.7091 0.222923 27.8188C0.104031 26.8354 0.0743076 25.852 0 24.9699H0.0297231Z" fill="black"/>
</svg>
