<svg width="43" height="44" viewBox="0 0 43 44" fill="none" xmlns="http://www.w3.org/2000/svg">
<path d="M40.3216 0H35.4021C34.9466 0 34.9466 0.455509 34.9466 0.455509V12.5538C34.9466 12.5538 34.9466 13.4466 34.0538 13.4466H8.96441C8.96441 13.4466 8.07161 13.4466 8.07161 12.5538V3.58941C8.07161 3.58941 8.07161 2.69661 8.96441 2.69661H9.8572C10.75 2.69661 10.75 3.58941 10.75 3.58941V10.3127C10.75 10.3127 10.75 10.7682 11.2055 10.7682H31.8127C32.2682 10.7682 32.2682 10.3127 32.2682 10.3127V0.455509C32.2682 0.455509 32.2682 0 31.8127 0H7.6161C4.93771 0 4.4822 0.892797 4.4822 0.892797L0.892797 4.4822C0.892797 4.4822 0 4.93771 0 7.17881V40.3216C0 41.6699 1.34831 43.0182 2.67839 43.0182H40.3034C41.6517 43.0182 43 41.6699 43 40.3216V2.67839C43 1.34831 41.6517 0 40.3216 0ZM37.625 39.4106C37.625 40.3034 36.7322 40.3034 36.7322 40.3034H6.2678C6.2678 40.3034 5.375 40.3034 5.375 39.4106V24.9072C5.375 24.2331 5.73941 23.814 5.73941 23.814L7.54322 22.0102C7.54322 22.0102 8.05339 21.5 8.83686 21.5H34.0356C34.892 21.5 35.3839 21.9555 35.3839 21.9555L37.1695 23.7411C37.1695 23.7411 37.625 24.0873 37.625 25.0894V39.4106ZM34.4911 34.9466H8.5089C8.01695 34.9466 7.6161 35.3475 7.6161 35.8394V36.7322C7.6161 37.2242 8.01695 37.625 8.5089 37.625H34.4911C34.9831 37.625 35.3839 37.2242 35.3839 36.7322V35.8394C35.3839 35.3475 34.9831 34.9466 34.4911 34.9466ZM34.4911 29.5716H8.5089C8.01695 29.5716 7.6161 29.9725 7.6161 30.4644V31.3572C7.6161 31.8492 8.01695 32.25 8.5089 32.25H34.4911C34.9831 32.25 35.3839 31.8492 35.3839 31.3572V30.4644C35.3839 29.9725 34.9831 29.5716 34.4911 29.5716ZM34.4911 24.1966H8.5089C8.01695 24.1966 7.6161 24.5975 7.6161 25.0894V25.9822C7.6161 26.4742 8.01695 26.875 8.5089 26.875H34.4911C34.9831 26.875 35.3839 26.4742 35.3839 25.9822V25.0894C35.3839 24.5975 34.9831 24.1966 34.4911 24.1966Z" fill="black"/>
</svg>
