<svg width="50" height="50" viewBox="0 0 50 50" fill="none" xmlns="http://www.w3.org/2000/svg">
<path d="M49.9902 4.98431V37.6579C49.8625 37.5697 49.7152 37.4913 49.6072 37.3736C48.5173 36.2953 47.4273 35.217 46.357 34.119C46.1901 33.9426 46.0723 33.6485 46.0723 33.4034C46.0428 32.0016 46.0625 30.5997 46.0625 29.1979C46.0625 29.0606 46.0428 28.9234 46.0428 28.8646C41.85 33.0407 37.6473 37.2364 33.4544 41.4125H42.5471C41.8107 40.6871 41.1233 40.0303 40.4851 39.4127C41.4572 38.4422 42.3704 37.5305 43.3523 36.5502C43.4309 36.658 43.5094 36.8247 43.6371 36.9423C45.6206 38.9225 47.6041 40.9126 49.5876 42.883C49.7152 43.0104 49.8527 43.1084 49.9902 43.2261V43.3241C49.8723 43.4319 49.7447 43.53 49.6269 43.6476C47.6139 45.6572 45.6108 47.6571 43.5978 49.6667C43.48 49.7843 43.3425 49.902 43.2443 50C42.3115 49.0687 41.4081 48.1668 40.4065 47.1669C41.0153 46.6081 41.6536 46.0298 42.39 45.3533H41.6732C31.2745 45.3533 20.8661 45.3533 10.4674 45.3533C9.81932 45.3533 9.15161 45.2945 8.53299 45.1279C6.08798 44.4809 4.52671 42.3144 4.52671 39.6382C4.52671 29.2077 4.52671 18.7674 4.52671 8.33696C4.52671 8.15071 4.52671 7.96445 4.52671 7.64095C3.84917 8.36637 3.26002 8.99377 2.74941 9.53294C1.75766 8.54283 0.834643 7.64095 0 6.80769C2.18971 4.6314 4.42851 2.39631 6.59859 0.239631C8.78829 2.42571 11.0271 4.65101 13.1972 6.81749C12.3233 7.68996 11.4199 8.59184 10.3987 9.61136C9.77023 8.98397 9.10251 8.30756 8.47408 7.68016V16.5715C12.6866 12.366 16.9187 8.1409 21.1508 3.91578C21.0526 3.91578 20.8857 3.91578 20.7286 3.91578C19.2753 3.91578 17.8221 3.92558 16.3688 3.90598C16.143 3.90598 15.8582 3.78834 15.7011 3.63149C14.6603 2.62178 13.639 1.58265 12.608 0.563132C12.4509 0.406283 12.2643 0.278843 12.0876 0.1416C12.117 0.0925845 12.1465 0.0533723 12.176 0.00435692H12.6964C16.3394 0.00435692 19.9823 0.00435692 23.6253 0.00435692C30.5381 0.00435692 37.4411 -0.00544615 44.3539 0.00435692C46.7793 0.00435692 48.5271 1.15132 49.5287 3.35701C49.7643 3.86677 49.8527 4.44515 50 4.98431H49.9902ZM11.3119 41.4517C12.991 41.4517 14.621 41.4615 16.251 41.4419C16.4965 41.4419 16.8009 41.3145 16.9678 41.1478C26.5711 31.58 36.1646 22.0024 45.7482 12.415C45.9053 12.2582 46.033 11.9739 46.033 11.7484C46.0625 10.2192 46.0428 8.68007 46.0428 7.15079C46.0428 7.03316 46.0232 6.91552 46.0134 6.82729C34.456 18.3655 22.9085 29.8841 11.3119 41.4615V41.4517ZM8.44462 38.4422C19.9627 26.9334 31.52 15.405 43.0283 3.91578C41.4277 3.91578 39.7093 3.91578 37.991 3.92558C37.824 3.92558 37.6277 4.05302 37.5 4.18046C27.8967 13.7581 18.3032 23.3357 8.71956 32.9231C8.57227 33.0701 8.46426 33.3348 8.45444 33.5505C8.42498 34.6288 8.44462 35.6973 8.44462 36.7757C8.44462 37.3736 8.44462 37.9618 8.44462 38.4422ZM46.0526 17.895C38.1874 25.7472 30.3123 33.6093 22.4568 41.4517C24.0082 41.4517 25.6383 41.4615 27.2683 41.4419C27.5236 41.4419 27.8378 41.3047 28.0244 41.1184C29.4187 39.7656 30.7836 38.3834 32.1583 37.0109C36.6752 32.5015 41.1921 27.9921 45.6991 23.4827C45.8464 23.3357 46.0428 23.12 46.0428 22.9337C46.0723 21.228 46.0625 19.5223 46.0625 17.8852L46.0526 17.895ZM32.0896 3.91578C30.3908 3.91578 28.7215 3.91578 27.0424 3.92558C26.8951 3.92558 26.7282 4.07263 26.6104 4.19027C20.65 10.1309 14.6897 16.0814 8.74902 22.0417C8.58209 22.2083 8.46426 22.5122 8.46426 22.7573C8.4348 24.0611 8.45444 25.3649 8.45444 26.6687C8.45444 26.953 8.45444 27.2373 8.45444 27.5314C16.3492 19.6399 24.2145 11.7974 32.0994 3.91578H32.0896Z" fill="black"/>
</svg>
