<svg width="50" height="50" viewBox="0 0 50 50" fill="none" xmlns="http://www.w3.org/2000/svg">
<path d="M14.7593 8.39817C14.996 8.53745 15.2327 8.63494 15.4277 8.80207C15.7618 9.09455 16.0821 9.42881 16.3884 9.74914C16.6808 10.0556 16.9871 10.1113 17.377 9.9302C18.1846 9.56809 19.0061 9.23382 19.8276 8.91349C20.1756 8.77421 20.3567 8.55137 20.3567 8.17533C20.3567 7.68786 20.3567 7.2004 20.3567 6.71293C20.3845 6.08619 20.6908 5.77979 21.3035 5.77979C23.768 5.77979 26.2325 5.77979 28.6969 5.77979C29.3514 5.77979 29.6438 6.08619 29.6716 6.74079C29.6855 7.21433 29.6716 7.67394 29.6716 8.14747C29.6716 8.55137 29.8526 8.77421 30.2286 8.92742C31.0361 9.24775 31.8437 9.56809 32.6234 9.9302C33.0411 10.1113 33.3475 10.0556 33.6538 9.73522C33.9601 9.40096 34.2804 9.08062 34.6145 8.77421C35.0601 8.35639 35.5056 8.34246 35.9373 8.77421C37.6917 10.5152 39.4321 12.2561 41.1726 14.011C41.6321 14.4706 41.6181 14.9023 41.1726 15.3759C40.8663 15.7101 40.546 16.0166 40.2118 16.3369C39.9055 16.6294 39.8498 16.9358 40.0308 17.3257C40.3929 18.1335 40.727 18.9553 41.0473 19.777C41.1865 20.1252 41.4093 20.3062 41.7852 20.3062C42.2726 20.3062 42.7599 20.3062 43.2472 20.3062C43.8738 20.3341 44.1801 20.6405 44.1801 21.2533C44.1801 23.7185 44.1801 26.1837 44.1801 28.6628C44.1801 29.3174 43.8738 29.6099 43.2194 29.6377C42.746 29.6517 42.2865 29.6377 41.8131 29.6377C41.4093 29.6377 41.1865 29.8188 41.0333 30.1948C40.7131 31.0026 40.3929 31.8104 40.0308 32.5904C39.8498 33.0082 39.9055 33.3146 40.2258 33.621C40.5599 33.9413 40.8941 34.2756 41.2144 34.6238C41.5903 35.0277 41.6042 35.4734 41.2144 35.8773C39.46 37.66 37.6917 39.4288 35.9094 41.1837C35.4917 41.6015 35.0462 41.5876 34.6145 41.1837C34.2664 40.8634 33.9462 40.5291 33.612 40.1948C33.3196 39.8884 33.0133 39.8327 32.6234 40.0138C31.8159 40.3759 30.9944 40.7102 30.1729 41.0305C29.8248 41.1698 29.6438 41.3926 29.6438 41.7686C29.6438 42.2561 29.6438 42.7436 29.6438 43.231C29.6159 43.8578 29.3096 44.1642 28.6969 44.1642C26.2325 44.1642 23.768 44.1642 21.3035 44.1642C20.6491 44.1642 20.3567 43.8578 20.3288 43.2032C20.3149 42.7296 20.3288 42.27 20.3288 41.7965C20.3288 41.3926 20.1478 41.1698 19.7719 41.0166C18.9643 40.6962 18.1567 40.3759 17.377 40.0138C16.9593 39.8327 16.653 39.8884 16.3466 40.2088C16.0264 40.543 15.6922 40.8773 15.3441 41.1976C14.9403 41.5737 14.4809 41.5876 14.091 41.1976C12.3088 39.4288 10.5265 37.6461 8.75821 35.8494C8.3962 35.4734 8.3962 35.0277 8.75821 34.6377C9.09238 34.2756 9.44047 33.9413 9.78857 33.6071C10.081 33.3146 10.1506 33.0082 9.96957 32.6182C9.60756 31.8104 9.27339 30.9887 8.95315 30.167C8.81391 29.8188 8.59113 29.6238 8.21519 29.6377C7.74178 29.6377 7.2823 29.6377 6.8089 29.6377C6.12663 29.6238 5.83424 29.3174 5.82031 28.6349C5.82031 26.1837 5.82031 23.7324 5.82031 21.2812C5.82031 20.6266 6.12663 20.3341 6.78105 20.3062C7.25445 20.2923 7.71394 20.3062 8.18734 20.3062C8.59113 20.3062 8.81391 20.1252 8.96707 19.7491C9.28731 18.9413 9.60756 18.1335 9.96957 17.3536C10.1506 16.9358 10.0949 16.6294 9.77464 16.323C9.44047 16.0026 9.10631 15.6684 8.78606 15.3202C8.41012 14.9163 8.3962 14.4567 8.78606 14.0667C10.5544 12.284 12.3366 10.5012 14.1328 8.7185C14.2859 8.5653 14.5087 8.50959 14.7454 8.38424L14.7593 8.39817ZM10.5683 14.7491C10.7493 14.9302 10.9582 15.1391 11.1531 15.362C11.7797 16.1001 11.9328 16.9358 11.5569 17.8411C11.1949 18.7464 10.8189 19.6377 10.443 20.5291C10.0531 21.4205 9.37086 21.9079 8.3962 21.9636C8.1038 21.9776 7.82533 21.9636 7.53293 21.9636V27.9386C7.72786 27.9386 7.89494 27.9664 8.07595 27.9664C9.42655 27.9803 10.1506 28.5096 10.6101 29.777C10.7911 30.2923 10.9582 30.8355 11.2227 31.323C12.0303 32.7993 12.0303 33.8856 10.6101 35.167C10.5822 35.1809 10.5822 35.2227 10.6101 35.167C12.0303 36.5876 13.4227 37.9803 14.8289 39.387C14.996 39.2199 15.2049 39.011 15.4277 38.816C16.1517 38.2171 16.9732 38.05 17.8643 38.4121C18.7833 38.7881 19.6883 39.1642 20.5934 39.5542C21.4705 39.9302 21.944 40.6127 22.0136 41.5737C22.0275 41.8661 22.0136 42.1586 22.0136 42.465H28.0147C28.0147 42.27 28.0147 42.1168 28.0147 41.9636C28.0286 40.5709 28.5577 39.8606 29.8526 39.387C30.5627 39.1224 31.2728 38.8299 31.969 38.5096C32.5677 38.245 33.1943 38.0918 33.7791 38.3703C34.336 38.6349 34.8095 39.0388 35.3107 39.3731C36.6613 38.0221 38.0537 36.6294 39.46 35.2227C39.279 35.0416 39.0701 34.8327 38.8752 34.6099C38.2486 33.8717 38.0954 33.0361 38.4714 32.1308C38.8334 31.2394 39.2093 30.3341 39.5853 29.4427C39.9751 28.5514 40.6574 28.0639 41.6321 28.0082C41.9245 27.9943 42.2029 28.0082 42.4953 28.0082V22.0193C42.3004 22.0193 42.1333 21.9915 41.9523 21.9915C40.6017 21.9776 39.8777 21.4483 39.4182 20.1809C39.2372 19.6656 39.0701 19.1224 38.8056 18.6349C37.998 17.1447 37.998 16.0723 39.4182 14.7909C39.446 14.7352 39.446 14.777 39.4182 14.7909C37.998 13.3703 36.6056 11.9636 35.2132 10.5709C35.0183 10.7519 34.8095 10.9887 34.5588 11.1837C33.8348 11.7547 33.0411 11.9079 32.1639 11.5458C31.245 11.1698 30.3399 10.7937 29.4349 10.4037C28.5577 10.0277 28.0843 9.34525 28.0147 8.38424C28.0008 8.09176 28.0147 7.79928 28.0147 7.49288H21.9996C21.9996 7.78536 21.9996 8.04998 21.9996 8.30068C21.9579 9.34524 21.4149 10.0556 20.468 10.4455C19.6326 10.7937 18.7972 11.128 17.9757 11.4762C17.1403 11.8383 16.3466 11.7826 15.6087 11.2533C15.3024 11.0305 15.0378 10.7519 14.7872 10.5152C13.3809 11.9218 11.9885 13.3146 10.5822 14.7213L10.5683 14.7491Z" fill="black"/>
<path d="M4.91493 2.29826C4.72 1.89436 4.55292 1.53224 4.38583 1.18405C4.21875 0.835863 4.21875 0.459819 4.52507 0.236977C4.76177 0.0698464 5.15163 -0.0555018 5.41619 0.0280637C7.28196 0.571239 9.11989 1.17012 10.9717 1.76901C11.5983 1.964 11.7793 2.38182 11.5565 2.98071C10.8882 4.81915 10.2059 6.65759 9.52368 8.49603C9.38444 8.886 9.13381 9.16455 8.70218 9.17848C8.25662 9.19241 8.00599 8.91386 7.85283 8.53781C7.72752 8.23141 7.57436 7.93893 7.4212 7.61859C5.98706 8.16177 4.98455 9.09492 4.46937 10.5155C3.92635 12.0615 3.8985 13.6492 4.1909 15.237C4.20482 15.3205 4.23267 15.4041 4.24659 15.4877C4.31621 15.9334 4.24659 16.3233 3.78711 16.5322C3.32763 16.7412 2.97954 16.5322 2.71499 16.1701C1.86564 15.0559 1.18338 13.8581 0.709975 12.535C0.0834083 10.8219 -0.208989 9.06706 0.166951 7.24255C0.584661 5.15341 1.80995 3.7328 3.73142 2.86929C4.12128 2.70216 4.51114 2.50717 4.92886 2.29826H4.91493ZM2.39474 12.0893C2.42259 11.9222 2.46436 11.7551 2.49221 11.588C2.70106 10.432 3.06308 9.34561 3.74534 8.37068C4.58076 7.15898 5.81997 6.50439 7.10095 5.89157C7.85283 5.52946 8.01992 5.54338 8.64648 6.11441C9.0085 5.12556 9.37051 4.15063 9.74646 3.13391C8.74395 2.81358 7.78321 2.5211 6.78071 2.20077C6.91994 2.98071 6.80856 3.23141 6.18199 3.53781C5.5415 3.85815 4.90101 4.16455 4.26052 4.47096C3.03523 5.05592 2.19981 5.96121 1.85172 7.29826C1.42008 8.95564 1.7264 10.5295 2.39474 12.1033V12.0893Z" fill="black"/>
<path d="M45.0987 47.6461C45.2936 48.064 45.5164 48.4121 45.6139 48.7882C45.6835 49.0807 45.6417 49.4428 45.5025 49.6935C45.3215 50.0138 44.9455 50.0556 44.5696 49.9442C42.7177 49.3592 40.8659 48.7743 39.014 48.1754C38.4014 47.9804 38.2204 47.5626 38.4432 46.9497C39.1115 45.1113 39.7938 43.2729 40.476 41.4344C40.6153 41.0445 40.8659 40.7659 41.3115 40.7659C41.7292 40.7659 41.9798 41.0027 42.133 41.3787C42.2722 41.6991 42.4253 41.9915 42.5924 42.3258C44.0266 41.7687 45.0291 40.8355 45.5303 39.401C46.0734 37.855 46.1012 36.2673 45.7949 34.6796C45.781 34.5821 45.7531 34.4706 45.7392 34.3731C45.6696 33.9275 45.781 33.5793 46.2265 33.3843C46.6721 33.2032 47.0062 33.3843 47.2708 33.7325C48.2594 35.0277 49.0252 36.4344 49.4986 37.9943C49.972 39.5403 50.1669 41.1141 49.8467 42.7158C49.429 44.777 48.2176 46.1977 46.324 47.0612C45.9341 47.2422 45.5443 47.4233 45.0987 47.6461ZM47.6189 37.855C47.591 38.0222 47.5493 38.1893 47.5214 38.3564C47.3126 39.5124 46.9505 40.5988 46.2683 41.5876C45.4189 42.8133 44.1797 43.4818 42.8848 44.0946C42.1608 44.4428 41.9659 44.4149 41.3811 43.8439C41.0051 44.8467 40.6431 45.8355 40.2811 46.8523C41.2975 47.1726 42.2443 47.4651 43.219 47.7854C43.1076 46.9637 43.219 46.7548 43.9152 46.4066C44.5417 46.1002 45.1683 45.7938 45.781 45.5013C46.7974 45.0138 47.5632 44.3035 47.967 43.245C48.6632 41.4205 48.3429 39.6378 47.6189 37.8829V37.855Z" fill="black"/>
<path d="M25.0209 11.6294C32.3865 11.6294 38.3737 17.6461 38.3459 25.0138C38.3319 32.3536 32.3308 38.3286 24.993 38.3286C17.6274 38.3286 11.6402 32.3118 11.6681 24.9442C11.682 17.6043 17.6831 11.6294 25.0209 11.6294ZM25.007 36.6572C31.4397 36.6572 36.675 31.4205 36.689 24.9859C36.689 18.5514 31.4676 13.3007 25.0487 13.2868C18.6021 13.2868 13.3389 18.5235 13.3389 24.972C13.3389 31.4066 18.5881 36.6433 25.007 36.6433V36.6572Z" fill="black"/>
<path d="M28.3477 24.9301C28.3477 23.3424 28.3477 21.7685 28.3477 20.1808C28.3477 19.4287 28.6401 19.1362 29.3919 19.1362C30.3805 19.1362 31.3691 19.1362 32.3577 19.1362C33.0399 19.1362 33.3463 19.4426 33.3463 20.1251C33.3463 23.3563 33.3463 26.5875 33.3463 29.8187C33.3463 30.5011 33.0399 30.8075 32.3577 30.8075C31.3552 30.8075 30.3387 30.8075 29.3362 30.8075C28.654 30.8075 28.3477 30.5011 28.3477 29.8187C28.3477 28.1892 28.3477 26.5457 28.3477 24.9162V24.9301ZM31.6476 29.1223V20.8493H30.0463V29.1223H31.6476Z" fill="black"/>
<path d="M22.5 26.1839C22.5 25.014 22.5 23.858 22.5 22.6881C22.5 21.936 22.7924 21.6436 23.5443 21.6436C24.5329 21.6436 25.5214 21.6436 26.51 21.6436C27.1923 21.6436 27.4986 21.95 27.4986 22.6324C27.4986 25.028 27.4986 27.4235 27.4986 29.833C27.4986 30.5154 27.1923 30.8218 26.51 30.8218C25.5075 30.8218 24.4911 30.8218 23.4886 30.8218C22.8063 30.8218 22.5 30.5154 22.5 29.833C22.5 28.6213 22.5 27.3956 22.5 26.1839ZM25.7999 29.1227V23.3427H24.1987V29.1227H25.7999Z" fill="black"/>
<path d="M21.6627 27.451C21.6627 28.2449 21.6627 29.0527 21.6627 29.8465C21.6627 30.5011 21.3563 30.8075 20.7019 30.8075C19.6716 30.8075 18.6552 30.8075 17.6248 30.8075C16.9704 30.8075 16.6641 30.5011 16.6641 29.8465C16.6641 28.2588 16.6641 26.685 16.6641 25.0972C16.6641 24.4426 16.9704 24.1362 17.6248 24.1362C18.6552 24.1362 19.6716 24.1362 20.7019 24.1362C21.3563 24.1362 21.6627 24.4426 21.6627 25.0972C21.6627 25.8772 21.6627 26.6571 21.6627 27.4371V27.451ZM18.3628 29.1223H19.9779V25.8493H18.3628V29.1223Z" fill="black"/>
</svg>
